<?xml version="1.0" encoding="UTF-8" standalone="no"?>
<!DOCTYPE svg PUBLIC "-//W3C//DTD SVG 1.1//EN"
 "http://www.w3.org/Graphics/SVG/1.1/DTD/svg11.dtd">
<!-- Generated by graphviz version 14.0.1 (20251006.0113)
 -->
<!-- DOT-SHA256: 3e681914caffed1ded65697c66128f4b7e647feb9f133cbce19e27b28857dd65 -->
<!-- Title: G Pages: 1 -->
<svg width="1086pt" height="58pt"
 viewBox="0.00 0.00 1086.00 58.00" xmlns="http://www.w3.org/2000/svg" xmlns:xlink="http://www.w3.org/1999/xlink">
<g id="graph0" class="graph" transform="scale(1 1) rotate(0) translate(10.8 46.8)">
<title>G</title>
<!-- n0 -->
<g id="node1" class="node">
<title>n0</title>
<path fill="#fff4e6" stroke="#34495e" stroke-width="1.2" d="M77.5,-36C77.5,-36 12,-36 12,-36 6,-36 0,-30 0,-24 0,-24 0,-12 0,-12 0,-6 6,0 12,0 12,0 77.5,0 77.5,0 83.5,0 89.5,-6 89.5,-12 89.5,-12 89.5,-24 89.5,-24 89.5,-30 83.5,-36 77.5,-36"/>
<text xml:space="preserve" text-anchor="middle" x="44.75" y="-14.22" font-family="Noto Sans CJK SC" font-size="17.00">问题/输入</text>
</g>
<!-- n1 -->
<g id="node2" class="node">
<title>n1</title>
<path fill="#edf5ff" stroke="#34495e" stroke-width="1.2" d="M303.75,-36C303.75,-36 141.5,-36 141.5,-36 135.5,-36 129.5,-30 129.5,-24 129.5,-24 129.5,-12 129.5,-12 129.5,-6 135.5,0 141.5,0 141.5,0 303.75,0 303.75,0 309.75,0 315.75,-6 315.75,-12 315.75,-12 315.75,-24 315.75,-24 315.75,-30 309.75,-36 303.75,-36"/>
<text xml:space="preserve" text-anchor="middle" x="222.62" y="-10.85" font-family="Noto Sans CJK SC" font-size="17.00">Token/Context window</text>
</g>
<!-- n0&#45;&gt;n1 -->
<g id="edge1" class="edge">
<title>n0&#45;&gt;n1</title>
<path fill="none" stroke="#5d6d7e" d="M89.68,-18C98.47,-18 108.06,-18 117.92,-18"/>
<polygon fill="#5d6d7e" stroke="#5d6d7e" points="117.63,-21.5 127.63,-18 117.63,-14.5 117.63,-21.5"/>
</g>
<!-- n2 -->
<g id="node3" class="node">
<title>n2</title>
<path fill="#edf5ff" stroke="#34495e" stroke-width="1.2" d="M526.25,-36C526.25,-36 367.75,-36 367.75,-36 361.75,-36 355.75,-30 355.75,-24 355.75,-24 355.75,-12 355.75,-12 355.75,-6 361.75,0 367.75,0 367.75,0 526.25,0 526.25,0 532.25,0 538.25,-6 538.25,-12 538.25,-12 538.25,-24 538.25,-24 538.25,-30 532.25,-36 526.25,-36"/>
<text xml:space="preserve" text-anchor="middle" x="447" y="-10.85" font-family="Noto Sans CJK SC" font-size="17.00">Structured generation</text>
</g>
<!-- n1&#45;&gt;n2 -->
<g id="edge2" class="edge">
<title>n1&#45;&gt;n2</title>
<path fill="none" stroke="#5d6d7e" d="M316.32,-18C325.37,-18 334.59,-18 343.73,-18"/>
<polygon fill="#5d6d7e" stroke="#5d6d7e" points="343.72,-21.5 353.72,-18 343.72,-14.5 343.72,-21.5"/>
</g>
<!-- n3 -->
<g id="node4" class="node">
<title>n3</title>
<path fill="#eef9f1" stroke="#34495e" stroke-width="1.2" d="M719.5,-36C719.5,-36 590.25,-36 590.25,-36 584.25,-36 578.25,-30 578.25,-24 578.25,-24 578.25,-12 578.25,-12 578.25,-6 584.25,0 590.25,0 590.25,0 719.5,0 719.5,0 725.5,0 731.5,-6 731.5,-12 731.5,-12 731.5,-24 731.5,-24 731.5,-30 725.5,-36 719.5,-36"/>
<text xml:space="preserve" text-anchor="middle" x="654.88" y="-14.22" font-family="Noto Sans CJK SC" font-size="17.00">Runtime/控制边界</text>
</g>
<!-- n2&#45;&gt;n3 -->
<g id="edge3" class="edge">
<title>n2&#45;&gt;n3</title>
<path fill="none" stroke="#5d6d7e" d="M538.6,-18C547.78,-18 557.09,-18 566.23,-18"/>
<polygon fill="#5d6d7e" stroke="#5d6d7e" points="566.2,-21.5 576.2,-18 566.2,-14.5 566.2,-21.5"/>
</g>
<!-- n4 -->
<g id="node5" class="node">
<title>n4</title>
<path fill="#f6efff" stroke="#34495e" stroke-width="1.2" d="M903.75,-36C903.75,-36 783.5,-36 783.5,-36 777.5,-36 771.5,-30 771.5,-24 771.5,-24 771.5,-12 771.5,-12 771.5,-6 777.5,0 783.5,0 783.5,0 903.75,0 903.75,0 909.75,0 915.75,-6 915.75,-12 915.75,-12 915.75,-24 915.75,-24 915.75,-30 909.75,-36 903.75,-36"/>
<text xml:space="preserve" text-anchor="middle" x="843.62" y="-10.85" font-family="Noto Sans CJK SC" font-size="17.00">Tool&#45;call contract</text>
</g>
<!-- n3&#45;&gt;n4 -->
<g id="edge4" class="edge">
<title>n3&#45;&gt;n4</title>
<path fill="none" stroke="#5d6d7e" d="M731.83,-18C741.02,-18 750.45,-18 759.73,-18"/>
<polygon fill="#5d6d7e" stroke="#5d6d7e" points="759.44,-21.5 769.44,-18 759.44,-14.5 759.44,-21.5"/>
</g>
<!-- n5 -->
<g id="node6" class="node">
<title>n5</title>
<path fill="#f7f9f9" stroke="#34495e" stroke-width="1.2" d="M1052,-36C1052,-36 967.75,-36 967.75,-36 961.75,-36 955.75,-30 955.75,-24 955.75,-24 955.75,-12 955.75,-12 955.75,-6 961.75,0 967.75,0 967.75,0 1052,0 1052,0 1058,0 1064,-6 1064,-12 1064,-12 1064,-24 1064,-24 1064,-30 1058,-36 1052,-36"/>
<text xml:space="preserve" text-anchor="middle" x="1009.88" y="-14.22" font-family="Noto Sans CJK SC" font-size="17.00">证据/Verifier</text>
</g>
<!-- n4&#45;&gt;n5 -->
<g id="edge5" class="edge">
<title>n4&#45;&gt;n5</title>
<path fill="none" stroke="#5d6d7e" d="M916.19,-18C925.43,-18 934.85,-18 943.97,-18"/>
<polygon fill="#5d6d7e" stroke="#5d6d7e" points="943.82,-21.5 953.82,-18 943.82,-14.5 943.82,-21.5"/>
</g>
</g>
</svg>
