<?xml version="1.0" encoding="UTF-8" standalone="no"?>
<!DOCTYPE svg PUBLIC "-//W3C//DTD SVG 1.1//EN"
 "http://www.w3.org/Graphics/SVG/1.1/DTD/svg11.dtd">
<!-- Generated by graphviz version 14.0.1 (20251006.0113)
 -->
<!-- DOT-SHA256: 2f453c79d0bbe3e15ee2abe8d04364be53da9cde057cf40bee7f41aa053e1a9c -->
<!-- Title: G Pages: 1 -->
<svg width="532pt" height="344pt"
 viewBox="0.00 0.00 532.00 344.00" xmlns="http://www.w3.org/2000/svg" xmlns:xlink="http://www.w3.org/1999/xlink">
<g id="graph0" class="graph" transform="scale(1 1) rotate(0) translate(12.96 330.71)">
<title>G</title>
<!-- intent -->
<g id="node1" class="node">
<title>intent</title>
<path fill="#edf5ff" stroke="#34495e" stroke-width="1.2" d="M318.1,-317.75C318.1,-317.75 53.1,-317.75 53.1,-317.75 47.1,-317.75 41.1,-311.75 41.1,-305.75 41.1,-305.75 41.1,-290.25 41.1,-290.25 41.1,-284.25 47.1,-278.25 53.1,-278.25 53.1,-278.25 318.1,-278.25 318.1,-278.25 324.1,-278.25 330.1,-284.25 330.1,-290.25 330.1,-290.25 330.1,-305.75 330.1,-305.75 330.1,-311.75 324.1,-317.75 318.1,-317.75"/>
<text xml:space="preserve" text-anchor="middle" x="185.6" y="-299.5" font-family="Noto Sans CJK SC" font-size="15.00">Canonical Action Intent</text>
<text xml:space="preserve" text-anchor="middle" x="185.6" y="-283.75" font-family="Noto Sans CJK SC" font-size="15.00">Action ID · Args Hash · Idempotency Key</text>
</g>
<!-- journal -->
<g id="node2" class="node">
<title>journal</title>
<path fill="#fff4e6" stroke="#34495e" stroke-width="1.2" d="M319.6,-231C319.6,-231 51.6,-231 51.6,-231 45.6,-231 39.6,-225 39.6,-219 39.6,-219 39.6,-203.5 39.6,-203.5 39.6,-197.5 45.6,-191.5 51.6,-191.5 51.6,-191.5 319.6,-191.5 319.6,-191.5 325.6,-191.5 331.6,-197.5 331.6,-203.5 331.6,-203.5 331.6,-219 331.6,-219 331.6,-225 325.6,-231 319.6,-231"/>
<text xml:space="preserve" text-anchor="middle" x="185.6" y="-212.75" font-family="Noto Sans CJK SC" font-size="15.00">Durable Effect Journal</text>
<text xml:space="preserve" text-anchor="middle" x="185.6" y="-197" font-family="Noto Sans CJK SC" font-size="15.00">PREPARED / UNKNOWN / COMMITTED</text>
</g>
<!-- intent&#45;&gt;journal -->
<g id="edge1" class="edge">
<title>intent&#45;&gt;journal</title>
<path fill="none" stroke="#5d6d7e" d="M185.6,-277.77C185.6,-267.47 185.6,-254.55 185.6,-242.91"/>
<polygon fill="#5d6d7e" stroke="#5d6d7e" points="189.1,-242.92 185.6,-232.92 182.1,-242.92 189.1,-242.92"/>
<text xml:space="preserve" text-anchor="middle" x="229.1" y="-250.75" font-family="Noto Sans CJK SC" font-size="10.00">persist PREPARED</text>
</g>
<!-- remote -->
<g id="node3" class="node">
<title>remote</title>
<path fill="#eef9f1" stroke="#34495e" stroke-width="1.2" d="M229.22,-45.5C229.22,-45.5 99.97,-45.5 99.97,-45.5 93.97,-45.5 87.97,-39.5 87.97,-33.5 87.97,-33.5 87.97,-12 87.97,-12 87.97,-6 93.97,0 99.97,0 99.97,0 229.22,0 229.22,0 235.22,0 241.22,-6 241.22,-12 241.22,-12 241.22,-33.5 241.22,-33.5 241.22,-39.5 235.22,-45.5 229.22,-45.5"/>
<text xml:space="preserve" text-anchor="middle" x="164.6" y="-27.25" font-family="Noto Sans CJK SC" font-size="15.00">外部系统</text>
<text xml:space="preserve" text-anchor="middle" x="164.6" y="-5.5" font-family="Noto Sans CJK SC" font-size="15.00">Idempotency Ledger</text>
</g>
<!-- journal&#45;&gt;remote -->
<g id="edge2" class="edge">
<title>journal&#45;&gt;remote</title>
<path fill="none" stroke="#5d6d7e" d="M74.24,-191.07C48.95,-181.28 25.03,-166.51 9.6,-144.25 -3.44,-125.44 -2.87,-111.95 9.6,-92.75 25.04,-68.98 50.78,-53.32 76.89,-43.05"/>
<polygon fill="#5d6d7e" stroke="#5d6d7e" points="78.07,-46.35 86.25,-39.62 75.66,-39.77 78.07,-46.35"/>
<text xml:space="preserve" text-anchor="middle" x="41.1" y="-114.62" font-family="Noto Sans CJK SC" font-size="10.00">authorized call</text>
</g>
<!-- reconcile -->
<g id="node4" class="node">
<title>reconcile</title>
<path fill="#fdecea" stroke="#34495e" stroke-width="1.2" d="M232.97,-141.25C232.97,-141.25 96.22,-141.25 96.22,-141.25 90.22,-141.25 84.22,-135.25 84.22,-129.25 84.22,-129.25 84.22,-107.75 84.22,-107.75 84.22,-101.75 90.22,-95.75 96.22,-95.75 96.22,-95.75 232.97,-95.75 232.97,-95.75 238.97,-95.75 244.97,-101.75 244.97,-107.75 244.97,-107.75 244.97,-129.25 244.97,-129.25 244.97,-135.25 238.97,-141.25 232.97,-141.25"/>
<text xml:space="preserve" text-anchor="middle" x="164.6" y="-123" font-family="Noto Sans CJK SC" font-size="15.00">Reconciliation Worker</text>
<text xml:space="preserve" text-anchor="middle" x="164.6" y="-107.25" font-family="Noto Sans CJK SC" font-size="15.00">查询而非盲重试</text>
</g>
<!-- journal&#45;&gt;reconcile -->
<g id="edge4" class="edge">
<title>journal&#45;&gt;reconcile</title>
<path fill="none" stroke="#5d6d7e" d="M120.02,-191.15C112.76,-186.49 106.3,-180.69 101.6,-173.5 95.81,-164.65 98.53,-156.43 105.34,-149.21"/>
<polygon fill="#5d6d7e" stroke="#5d6d7e" points="107.6,-151.89 112.99,-142.76 103.09,-146.54 107.6,-151.89"/>
<text xml:space="preserve" text-anchor="middle" x="128.6" y="-164" font-family="Noto Sans CJK SC" font-size="10.00">UNKNOWN</text>
</g>
<!-- verify -->
<g id="node5" class="node">
<title>verify</title>
<path fill="#f6efff" stroke="#34495e" stroke-width="1.2" d="M403.85,-144.25C403.85,-144.25 281.35,-144.25 281.35,-144.25 275.35,-144.25 269.35,-138.25 269.35,-132.25 269.35,-132.25 269.35,-104.75 269.35,-104.75 269.35,-98.75 275.35,-92.75 281.35,-92.75 281.35,-92.75 403.85,-92.75 403.85,-92.75 409.85,-92.75 415.85,-98.75 415.85,-104.75 415.85,-104.75 415.85,-132.25 415.85,-132.25 415.85,-138.25 409.85,-144.25 403.85,-144.25"/>
<text xml:space="preserve" text-anchor="middle" x="342.6" y="-126" font-family="Noto Sans CJK SC" font-size="15.00">业务 Verifier</text>
<text xml:space="preserve" text-anchor="middle" x="342.6" y="-104.25" font-family="Noto Sans CJK SC" font-size="15.00">后置条件与 Receipt</text>
</g>
<!-- journal&#45;&gt;verify -->
<g id="edge7" class="edge">
<title>journal&#45;&gt;verify</title>
<path fill="none" stroke="#5d6d7e" d="M294.79,-191.02C304.53,-186.36 313.69,-180.61 321.6,-173.5 327.05,-168.6 331.1,-162.12 334.1,-155.35"/>
<polygon fill="#5d6d7e" stroke="#5d6d7e" points="337.34,-156.68 337.49,-146.09 330.77,-154.27 337.34,-156.68"/>
</g>
<!-- remote&#45;&gt;journal -->
<g id="edge3" class="edge">
<title>remote&#45;&gt;journal</title>
<path fill="none" stroke="#5d6d7e" d="M241.69,-33.51C310.88,-44.04 404.93,-63.36 427.6,-92.75 465.11,-141.38 400.24,-171.05 328.26,-188.41"/>
<polygon fill="#5d6d7e" stroke="#5d6d7e" points="327.56,-184.98 318.6,-190.65 329.14,-191.8 327.56,-184.98"/>
<text xml:space="preserve" text-anchor="middle" x="472.32" y="-114.62" font-family="Noto Sans CJK SC" font-size="10.00">reply or timeout</text>
</g>
<!-- reconcile&#45;&gt;journal -->
<g id="edge6" class="edge">
<title>reconcile&#45;&gt;journal</title>
<path fill="none" stroke="#5d6d7e" d="M169.71,-141.59C172.39,-153.16 175.71,-167.5 178.62,-180.08"/>
<polygon fill="#5d6d7e" stroke="#5d6d7e" points="175.14,-180.58 180.8,-189.53 181.96,-179 175.14,-180.58"/>
<text xml:space="preserve" text-anchor="middle" x="246.36" y="-164" font-family="Noto Sans CJK SC" font-size="10.00">COMMITTED / NOT_APPLIED</text>
</g>
<!-- reconcile&#45;&gt;remote -->
<g id="edge5" class="edge">
<title>reconcile&#45;&gt;remote</title>
<path fill="none" stroke="#5d6d7e" d="M164.6,-95.28C164.6,-83.84 164.6,-69.66 164.6,-56.95"/>
<polygon fill="#5d6d7e" stroke="#5d6d7e" points="168.1,-57.32 164.6,-47.32 161.1,-57.32 168.1,-57.32"/>
<text xml:space="preserve" text-anchor="middle" x="178.85" y="-65.25" font-family="Noto Sans CJK SC" font-size="10.00">lookup</text>
</g>
</g>
</svg>
