<?xml version="1.0" encoding="UTF-8" standalone="no"?>
<!DOCTYPE svg PUBLIC "-//W3C//DTD SVG 1.1//EN"
 "http://www.w3.org/Graphics/SVG/1.1/DTD/svg11.dtd">
<!-- Generated by graphviz version 14.0.1 (20251006.0113)
 -->
<!-- DOT-SHA256: 0f4a95a72d83e18731e877536c00b64a33d61d79ad67cbc4c4f11a0ec597d844 -->
<!-- Title: G Pages: 1 -->
<svg width="584pt" height="588pt"
 viewBox="0.00 0.00 584.00 588.00" xmlns="http://www.w3.org/2000/svg" xmlns:xlink="http://www.w3.org/1999/xlink">
<g id="graph0" class="graph" transform="scale(1 1) rotate(0) translate(12.96 575.46)">
<title>G</title>
<!-- request -->
<g id="node1" class="node">
<title>request</title>
<path fill="#fff4e6" stroke="#34495e" d="M512.62,-562.5C512.62,-562.5 304.62,-562.5 304.62,-562.5 298.62,-562.5 292.62,-556.5 292.62,-550.5 292.62,-550.5 292.62,-535 292.62,-535 292.62,-529 298.62,-523 304.62,-523 304.62,-523 512.62,-523 512.62,-523 518.62,-523 524.62,-529 524.62,-535 524.62,-535 524.62,-550.5 524.62,-550.5 524.62,-556.5 518.62,-562.5 512.62,-562.5"/>
<text xml:space="preserve" text-anchor="middle" x="408.62" y="-544.25" font-family="Noto Sans CJK SC" font-size="15.00">JSON&#45;RPC + Per&#45;Request Meta</text>
<text xml:space="preserve" text-anchor="middle" x="408.62" y="-528.5" font-family="Noto Sans CJK SC" font-size="15.00">Version · Capabilities</text>
</g>
<!-- headers -->
<g id="node2" class="node">
<title>headers</title>
<path fill="#edf5ff" stroke="#34495e" d="M491.62,-492C491.62,-492 325.62,-492 325.62,-492 319.62,-492 313.62,-486 313.62,-480 313.62,-480 313.62,-464.5 313.62,-464.5 313.62,-458.5 319.62,-452.5 325.62,-452.5 325.62,-452.5 491.62,-452.5 491.62,-452.5 497.62,-452.5 503.62,-458.5 503.62,-464.5 503.62,-464.5 503.62,-480 503.62,-480 503.62,-486 497.62,-492 491.62,-492"/>
<text xml:space="preserve" text-anchor="middle" x="408.62" y="-473.75" font-family="Noto Sans CJK SC" font-size="15.00">Streamable HTTP Routing</text>
<text xml:space="preserve" text-anchor="middle" x="408.62" y="-458" font-family="Noto Sans CJK SC" font-size="15.00">Version · Method · Name</text>
</g>
<!-- request&#45;&gt;headers -->
<g id="edge1" class="edge">
<title>request&#45;&gt;headers</title>
<path fill="none" stroke="#5d6d7e" d="M408.62,-522.67C408.62,-516.73 408.62,-510.03 408.62,-503.52"/>
<polygon fill="#5d6d7e" stroke="#5d6d7e" points="412.13,-503.74 408.63,-493.74 405.13,-503.74 412.13,-503.74"/>
</g>
<!-- valid -->
<g id="node3" class="node">
<title>valid</title>
<path fill="#fdecea" stroke="#34495e" d="M396.87,-419.1C396.87,-419.1 274.63,-394.15 274.63,-394.15 268.75,-392.95 268.75,-390.55 274.63,-389.35 274.63,-389.35 396.87,-364.4 396.87,-364.4 402.75,-363.2 414.5,-363.2 420.38,-364.4 420.38,-364.4 542.62,-389.35 542.62,-389.35 548.5,-390.55 548.5,-392.95 542.62,-394.15 542.62,-394.15 420.38,-419.1 420.38,-419.1 414.5,-420.3 402.75,-420.3 396.87,-419.1"/>
<text xml:space="preserve" text-anchor="middle" x="408.62" y="-388.38" font-family="Noto Sans CJK SC" font-size="15.00">Header/Body 一致?</text>
</g>
<!-- headers&#45;&gt;valid -->
<g id="edge2" class="edge">
<title>headers&#45;&gt;valid</title>
<path fill="none" stroke="#5d6d7e" d="M408.62,-452.25C408.62,-446.43 408.62,-439.8 408.62,-433.13"/>
<polygon fill="#5d6d7e" stroke="#5d6d7e" points="412.13,-433.51 408.63,-423.51 405.13,-433.51 412.13,-433.51"/>
</g>
<!-- handler -->
<g id="node4" class="node">
<title>handler</title>
<path fill="#eef9f1" stroke="#34495e" d="M390.75,-312.25C390.75,-312.25 258.5,-312.25 258.5,-312.25 252.5,-312.25 246.5,-306.25 246.5,-300.25 246.5,-300.25 246.5,-288.25 246.5,-288.25 246.5,-282.25 252.5,-276.25 258.5,-276.25 258.5,-276.25 390.75,-276.25 390.75,-276.25 396.75,-276.25 402.75,-282.25 402.75,-288.25 402.75,-288.25 402.75,-300.25 402.75,-300.25 402.75,-306.25 396.75,-312.25 390.75,-312.25"/>
<text xml:space="preserve" text-anchor="middle" x="324.62" y="-287.88" font-family="Noto Sans CJK SC" font-size="15.00">Server Handler / Tool</text>
</g>
<!-- valid&#45;&gt;handler -->
<g id="edge3" class="edge">
<title>valid&#45;&gt;handler</title>
<path fill="none" stroke="#5d6d7e" d="M386.99,-366.16C374.76,-352.24 359.47,-334.87 347.1,-320.8"/>
<polygon fill="#5d6d7e" stroke="#5d6d7e" points="350.06,-318.86 340.82,-313.67 344.8,-323.49 350.06,-318.86"/>
<text xml:space="preserve" text-anchor="middle" x="374.39" y="-337.5" font-family="Noto Sans CJK SC" font-size="10.00">是</text>
</g>
<!-- reject -->
<g id="node9" class="node">
<title>reject</title>
<path fill="#fdecea" stroke="#34495e" d="M546.12,-317C546.12,-317 437.12,-317 437.12,-317 431.12,-317 425.12,-311 425.12,-305 425.12,-305 425.12,-283.5 425.12,-283.5 425.12,-277.5 431.12,-271.5 437.12,-271.5 437.12,-271.5 546.12,-271.5 546.12,-271.5 552.12,-271.5 558.12,-277.5 558.12,-283.5 558.12,-283.5 558.12,-305 558.12,-305 558.12,-311 552.12,-317 546.12,-317"/>
<text xml:space="preserve" text-anchor="middle" x="491.62" y="-298.75" font-family="Noto Sans CJK SC" font-size="15.00">Protocol Reject</text>
<text xml:space="preserve" text-anchor="middle" x="491.62" y="-283" font-family="Noto Sans CJK SC" font-size="15.00">不得进入 Handler</text>
</g>
<!-- valid&#45;&gt;reject -->
<g id="edge4" class="edge">
<title>valid&#45;&gt;reject</title>
<path fill="none" stroke="#b03a2e" d="M430,-366.16C440.61,-353.94 453.55,-339.06 464.82,-326.09"/>
<polygon fill="#b03a2e" stroke="#b03a2e" points="467.4,-328.46 471.32,-318.62 462.11,-323.87 467.4,-328.46"/>
<text xml:space="preserve" text-anchor="middle" x="462.81" y="-337.5" font-family="Noto Sans CJK SC" font-size="10.00">否</text>
</g>
<!-- input -->
<g id="node5" class="node">
<title>input</title>
<path fill="#fdecea" stroke="#34495e" d="M239.01,-237.48C239.01,-237.48 147.99,-213.77 147.99,-213.77 142.18,-212.26 142.18,-209.24 147.99,-207.73 147.99,-207.73 239.01,-184.02 239.01,-184.02 244.82,-182.51 256.43,-182.51 262.24,-184.02 262.24,-184.02 353.26,-207.73 353.26,-207.73 359.07,-209.24 359.07,-212.26 353.26,-213.77 353.26,-213.77 262.24,-237.48 262.24,-237.48 256.43,-238.99 244.82,-238.99 239.01,-237.48"/>
<text xml:space="preserve" text-anchor="middle" x="250.62" y="-207.38" font-family="Noto Sans CJK SC" font-size="15.00">需要中途输入?</text>
</g>
<!-- handler&#45;&gt;input -->
<g id="edge5" class="edge">
<title>handler&#45;&gt;input</title>
<path fill="none" stroke="#5d6d7e" d="M308.93,-275.97C300.34,-266.51 289.43,-254.49 279.38,-243.42"/>
<polygon fill="#5d6d7e" stroke="#5d6d7e" points="282.24,-241.36 272.93,-236.31 277.06,-246.07 282.24,-241.36"/>
</g>
<!-- mrtr -->
<g id="node6" class="node">
<title>mrtr</title>
<path fill="#34495e" stroke="#34495e" d="M147.25,-136C147.25,-136 12,-136 12,-136 6,-136 0,-130 0,-124 0,-124 0,-108.5 0,-108.5 0,-102.5 6,-96.5 12,-96.5 12,-96.5 147.25,-96.5 147.25,-96.5 153.25,-96.5 159.25,-102.5 159.25,-108.5 159.25,-108.5 159.25,-124 159.25,-124 159.25,-130 153.25,-136 147.25,-136"/>
<text xml:space="preserve" text-anchor="middle" x="79.62" y="-117.75" font-family="Noto Sans CJK SC" font-size="15.00">input_required</text>
<text xml:space="preserve" text-anchor="middle" x="79.62" y="-102" font-family="Noto Sans CJK SC" font-size="15.00">Opaque requestState</text>
</g>
<!-- input&#45;&gt;mrtr -->
<g id="edge7" class="edge">
<title>input&#45;&gt;mrtr</title>
<path fill="none" stroke="#5d6d7e" d="M214.36,-190.13C188.25,-176.01 152.86,-156.86 124.89,-141.74"/>
<polygon fill="#5d6d7e" stroke="#5d6d7e" points="126.75,-138.76 116.29,-137.08 123.42,-144.92 126.75,-138.76"/>
<text xml:space="preserve" text-anchor="middle" x="170.38" y="-156.5" font-family="Noto Sans CJK SC" font-size="10.00">是</text>
</g>
<!-- complete -->
<g id="node8" class="node">
<title>complete</title>
<path fill="#f6efff" stroke="#34495e" d="M352.25,-134.25C352.25,-134.25 193,-134.25 193,-134.25 187,-134.25 181,-128.25 181,-122.25 181,-122.25 181,-110.25 181,-110.25 181,-104.25 187,-98.25 193,-98.25 193,-98.25 352.25,-98.25 352.25,-98.25 358.25,-98.25 364.25,-104.25 364.25,-110.25 364.25,-110.25 364.25,-122.25 364.25,-122.25 364.25,-128.25 358.25,-134.25 352.25,-134.25"/>
<text xml:space="preserve" text-anchor="middle" x="272.62" y="-109.88" font-family="Noto Sans CJK SC" font-size="15.00">Complete / Task / Artifact</text>
</g>
<!-- input&#45;&gt;complete -->
<g id="edge6" class="edge">
<title>input&#45;&gt;complete</title>
<path fill="none" stroke="#5d6d7e" d="M257.17,-182.25C259.92,-170.66 263.13,-157.19 265.9,-145.53"/>
<polygon fill="#5d6d7e" stroke="#5d6d7e" points="269.24,-146.61 268.15,-136.07 262.43,-144.99 269.24,-146.61"/>
<text xml:space="preserve" text-anchor="middle" x="269.49" y="-156.5" font-family="Noto Sans CJK SC" font-size="10.00">否</text>
</g>
<!-- resume -->
<g id="node7" class="node">
<title>resume</title>
<path fill="#34495e" stroke="#34495e" d="M287.75,-51.5C287.75,-51.5 191.5,-51.5 191.5,-51.5 185.5,-51.5 179.5,-45.5 179.5,-39.5 179.5,-39.5 179.5,-12 179.5,-12 179.5,-6 185.5,0 191.5,0 191.5,0 287.75,0 287.75,0 293.75,0 299.75,-6 299.75,-12 299.75,-12 299.75,-39.5 299.75,-39.5 299.75,-45.5 293.75,-51.5 287.75,-51.5"/>
<text xml:space="preserve" text-anchor="middle" x="239.62" y="-33.25" font-family="Noto Sans CJK SC" font-size="15.00">Host 收集 Input</text>
<text xml:space="preserve" text-anchor="middle" x="239.62" y="-11.5" font-family="Noto Sans CJK SC" font-size="15.00">原状态重发</text>
</g>
<!-- mrtr&#45;&gt;resume -->
<g id="edge8" class="edge">
<title>mrtr&#45;&gt;resume</title>
<path fill="none" stroke="#5d6d7e" stroke-dasharray="5,2" d="M114.34,-96.05C134.68,-84.8 160.83,-70.33 183.98,-57.53"/>
<polygon fill="#5d6d7e" stroke="#5d6d7e" points="185.65,-60.6 192.71,-52.7 182.26,-54.48 185.65,-60.6"/>
<text xml:space="preserve" text-anchor="middle" x="187.67" y="-72" font-family="Noto Sans CJK SC" font-size="10.00">采集 Input</text>
</g>
<!-- resume&#45;&gt;handler -->
<g id="edge9" class="edge">
<title>resume&#45;&gt;handler</title>
<path fill="none" stroke="#5d6d7e" stroke-dasharray="5,2" d="M299.94,-41.88C328.1,-52.3 359.02,-69.33 375.62,-96.5 408.99,-151.11 399.62,-181.17 375.62,-240.5 371.44,-250.84 364.15,-260.28 356.37,-268.23"/>
<polygon fill="#5d6d7e" stroke="#5d6d7e" points="354.17,-265.49 349.3,-274.9 358.97,-270.59 354.17,-265.49"/>
<text xml:space="preserve" text-anchor="middle" x="433.28" y="-156.5" font-family="Noto Sans CJK SC" font-size="10.00">校验 State/轮数</text>
</g>
</g>
</svg>
