<?xml version="1.0" encoding="UTF-8" standalone="no"?>
<!DOCTYPE svg PUBLIC "-//W3C//DTD SVG 1.1//EN"
 "http://www.w3.org/Graphics/SVG/1.1/DTD/svg11.dtd">
<!-- Generated by graphviz version 14.0.1 (20251006.0113)
 -->
<!-- DOT-SHA256: 70461de587d0689ffdb2479f8fdd9b293ec7e9b3158c249d4bccb14aa04a5049 -->
<!-- Title: G Pages: 1 -->
<svg width="601pt" height="591pt"
 viewBox="0.00 0.00 601.00 591.00" xmlns="http://www.w3.org/2000/svg" xmlns:xlink="http://www.w3.org/1999/xlink">
<g id="graph0" class="graph" transform="scale(1 1) rotate(0) translate(12.96 577.96)">
<title>G</title>
<!-- discover -->
<g id="node1" class="node">
<title>discover</title>
<path fill="#edf5ff" stroke="#34495e" d="M444.88,-565C444.88,-565 272.12,-565 272.12,-565 266.12,-565 260.12,-559 260.12,-553 260.12,-553 260.12,-541 260.12,-541 260.12,-535 266.12,-529 272.12,-529 272.12,-529 444.88,-529 444.88,-529 450.88,-529 456.88,-535 456.88,-541 456.88,-541 456.88,-553 456.88,-553 456.88,-559 450.88,-565 444.88,-565"/>
<text xml:space="preserve" text-anchor="middle" x="358.5" y="-543.83" font-family="Noto Sans CJK SC" font-size="14.00">读取 Manifest / Artifact Digest</text>
</g>
<!-- validate -->
<g id="node2" class="node">
<title>validate</title>
<path fill="#fdecea" stroke="#34495e" d="M346.73,-495.65C346.73,-495.65 153.27,-457.1 153.27,-457.1 147.38,-455.92 147.38,-453.58 153.27,-452.4 153.27,-452.4 346.73,-413.85 346.73,-413.85 352.62,-412.67 364.38,-412.67 370.27,-413.85 370.27,-413.85 563.73,-452.4 563.73,-452.4 569.62,-453.58 569.62,-455.92 563.73,-457.1 563.73,-457.1 370.27,-495.65 370.27,-495.65 364.38,-496.83 352.62,-496.83 346.73,-495.65"/>
<text xml:space="preserve" text-anchor="middle" x="358.5" y="-459.07" font-family="Noto Sans CJK SC" font-size="14.00">Identity · Dependency · Capability</text>
<text xml:space="preserve" text-anchor="middle" x="358.5" y="-444.07" font-family="Noto Sans CJK SC" font-size="14.00">兼容性有效?</text>
</g>
<!-- discover&#45;&gt;validate -->
<g id="edge1" class="edge">
<title>discover&#45;&gt;validate</title>
<path fill="none" stroke="#5d6d7e" d="M358.5,-528.6C358.5,-522.88 358.5,-516.2 358.5,-509.24"/>
<polygon fill="#5d6d7e" stroke="#5d6d7e" points="362,-509.7 358.5,-499.7 355,-509.7 362,-509.7"/>
</g>
<!-- order -->
<g id="node3" class="node">
<title>order</title>
<path fill="#fff4e6" stroke="#34495e" d="M343.25,-366.5C343.25,-366.5 265.75,-366.5 265.75,-366.5 259.75,-366.5 253.75,-360.5 253.75,-354.5 253.75,-354.5 253.75,-342.5 253.75,-342.5 253.75,-336.5 259.75,-330.5 265.75,-330.5 265.75,-330.5 343.25,-330.5 343.25,-330.5 349.25,-330.5 355.25,-336.5 355.25,-342.5 355.25,-342.5 355.25,-354.5 355.25,-354.5 355.25,-360.5 349.25,-366.5 343.25,-366.5"/>
<text xml:space="preserve" text-anchor="middle" x="304.5" y="-345.32" font-family="Noto Sans CJK SC" font-size="14.00">稳定拓扑排序</text>
</g>
<!-- validate&#45;&gt;order -->
<g id="edge2" class="edge">
<title>validate&#45;&gt;order</title>
<path fill="none" stroke="#5d6d7e" d="M338.55,-415.23C331.97,-402.53 324.79,-388.67 318.73,-376.96"/>
<polygon fill="#5d6d7e" stroke="#5d6d7e" points="321.93,-375.53 314.22,-368.26 315.71,-378.75 321.93,-375.53"/>
<text xml:space="preserve" text-anchor="middle" x="333.52" y="-387" font-family="Noto Sans CJK SC" font-size="10.00">是</text>
</g>
<!-- invalid -->
<g id="node8" class="node">
<title>invalid</title>
<path fill="#fdecea" stroke="#34495e" d="M397.12,-36C397.12,-36 273.88,-36 273.88,-36 267.88,-36 261.88,-30 261.88,-24 261.88,-24 261.88,-12 261.88,-12 261.88,-6 267.88,0 273.88,0 273.88,0 397.12,0 397.12,0 403.12,0 409.12,-6 409.12,-12 409.12,-12 409.12,-24 409.12,-24 409.12,-30 403.12,-36 397.12,-36"/>
<text xml:space="preserve" text-anchor="middle" x="335.5" y="-12.2" font-family="Noto Sans CJK SC" font-size="14.00">INVALID / Fail Closed</text>
</g>
<!-- validate&#45;&gt;invalid -->
<g id="edge3" class="edge">
<title>validate&#45;&gt;invalid</title>
<path fill="none" stroke="#5d6d7e" d="M381.71,-416.09C391.42,-396.88 400.5,-372.72 400.5,-349.5 400.5,-349.5 400.5,-349.5 400.5,-98 400.5,-75.93 398.03,-68.43 384.5,-51 382.48,-48.4 380.2,-45.95 377.74,-43.65"/>
<polygon fill="#5d6d7e" stroke="#5d6d7e" points="379.99,-40.98 370.03,-37.37 375.57,-46.4 379.99,-40.98"/>
<text xml:space="preserve" text-anchor="middle" x="405.75" y="-239" font-family="Noto Sans CJK SC" font-size="10.00">否</text>
</g>
<!-- activate -->
<g id="node4" class="node">
<title>activate</title>
<path fill="#eef9f1" stroke="#34495e" d="M351.62,-299.5C351.62,-299.5 183.38,-299.5 183.38,-299.5 177.38,-299.5 171.38,-293.5 171.38,-287.5 171.38,-287.5 171.38,-275.5 171.38,-275.5 171.38,-269.5 177.38,-263.5 183.38,-263.5 183.38,-263.5 351.62,-263.5 351.62,-263.5 357.62,-263.5 363.62,-269.5 363.62,-275.5 363.62,-275.5 363.62,-287.5 363.62,-287.5 363.62,-293.5 357.62,-299.5 351.62,-299.5"/>
<text xml:space="preserve" text-anchor="middle" x="267.5" y="-278.32" font-family="Noto Sans CJK SC" font-size="14.00">按序 Activate 并保存 Handle</text>
</g>
<!-- order&#45;&gt;activate -->
<g id="edge4" class="edge">
<title>order&#45;&gt;activate</title>
<path fill="none" stroke="#5d6d7e" d="M294.58,-330.08C291.02,-323.82 286.9,-316.59 282.98,-309.69"/>
<polygon fill="#5d6d7e" stroke="#5d6d7e" points="286.18,-308.24 278.19,-301.28 280.1,-311.7 286.18,-308.24"/>
</g>
<!-- success -->
<g id="node5" class="node">
<title>success</title>
<path fill="#fdecea" stroke="#34495e" d="M245.88,-215.49C245.88,-215.49 160.12,-193.26 160.12,-193.26 154.31,-191.76 154.31,-188.74 160.12,-187.24 160.12,-187.24 245.88,-165.01 245.88,-165.01 251.69,-163.51 263.31,-163.51 269.12,-165.01 269.12,-165.01 354.88,-187.24 354.88,-187.24 360.69,-188.74 360.69,-191.76 354.88,-193.26 354.88,-193.26 269.12,-215.49 269.12,-215.49 263.31,-216.99 251.69,-216.99 245.88,-215.49"/>
<text xml:space="preserve" text-anchor="middle" x="257.5" y="-187.07" font-family="Noto Sans CJK SC" font-size="14.00">全部激活成功?</text>
</g>
<!-- activate&#45;&gt;success -->
<g id="edge5" class="edge">
<title>activate&#45;&gt;success</title>
<path fill="none" stroke="#5d6d7e" d="M265.57,-263.29C264.48,-253.54 263.07,-240.94 261.73,-229.01"/>
<polygon fill="#5d6d7e" stroke="#5d6d7e" points="265.25,-228.94 260.65,-219.4 258.29,-229.72 265.25,-228.94"/>
</g>
<!-- ready -->
<g id="node6" class="node">
<title>ready</title>
<path fill="#eef9f1" stroke="#34495e" d="M139,-117C139,-117 12,-117 12,-117 6,-117 0,-111 0,-105 0,-105 0,-93 0,-93 0,-87 6,-81 12,-81 12,-81 139,-81 139,-81 145,-81 151,-87 151,-93 151,-93 151,-105 151,-105 151,-111 145,-117 139,-117"/>
<text xml:space="preserve" text-anchor="middle" x="75.5" y="-95.83" font-family="Noto Sans CJK SC" font-size="14.00">发布 Runtime READY</text>
</g>
<!-- success&#45;&gt;ready -->
<g id="edge6" class="edge">
<title>success&#45;&gt;ready</title>
<path fill="none" stroke="#5d6d7e" d="M220.67,-171.19C191.93,-157.09 151.85,-137.44 121.08,-122.35"/>
<polygon fill="#5d6d7e" stroke="#5d6d7e" points="122.92,-119.35 112.4,-118.09 119.83,-125.64 122.92,-119.35"/>
<text xml:space="preserve" text-anchor="middle" x="171.75" y="-137.5" font-family="Noto Sans CJK SC" font-size="10.00">是</text>
</g>
<!-- rollback -->
<g id="node7" class="node">
<title>rollback</title>
<path fill="#fdecea" stroke="#34495e" d="M354,-117C354,-117 185,-117 185,-117 179,-117 173,-111 173,-105 173,-105 173,-93 173,-93 173,-87 179,-81 185,-81 185,-81 354,-81 354,-81 360,-81 366,-87 366,-93 366,-93 366,-105 366,-105 366,-111 360,-117 354,-117"/>
<text xml:space="preserve" text-anchor="middle" x="269.5" y="-95.83" font-family="Noto Sans CJK SC" font-size="14.00">逆序 Dispose 已激活 Handle</text>
</g>
<!-- success&#45;&gt;rollback -->
<g id="edge7" class="edge">
<title>success&#45;&gt;rollback</title>
<path fill="none" stroke="#5d6d7e" d="M261.1,-162.47C262.54,-151.76 264.2,-139.41 265.66,-128.53"/>
<polygon fill="#5d6d7e" stroke="#5d6d7e" points="269.09,-129.33 266.95,-118.96 262.15,-128.4 269.09,-129.33"/>
<text xml:space="preserve" text-anchor="middle" x="270.18" y="-137.5" font-family="Noto Sans CJK SC" font-size="10.00">否</text>
</g>
<!-- rollback&#45;&gt;invalid -->
<g id="edge8" class="edge">
<title>rollback&#45;&gt;invalid</title>
<path fill="none" stroke="#5d6d7e" d="M271.39,-80.53C273.14,-71.02 276.51,-59.51 283,-51 285,-48.37 287.29,-45.92 289.76,-43.62"/>
<polygon fill="#5d6d7e" stroke="#5d6d7e" points="291.92,-46.38 297.55,-37.4 287.55,-40.91 291.92,-46.38"/>
<text xml:space="preserve" text-anchor="middle" x="333.25" y="-56.5" font-family="Noto Sans CJK SC" font-size="10.00">记录 cleanup evidence</text>
</g>
</g>
</svg>
