<?xml version="1.0" encoding="UTF-8" standalone="no"?>
<!DOCTYPE svg PUBLIC "-//W3C//DTD SVG 1.1//EN"
 "http://www.w3.org/Graphics/SVG/1.1/DTD/svg11.dtd">
<!-- Generated by graphviz version 14.0.1 (20251006.0113)
 -->
<!-- DOT-SHA256: edfa4fa9dfe223e7695b26671b0668c4bf349bf306b8e6e98cdbf27d1945a0a8 -->
<!-- Title: G Pages: 1 -->
<svg width="850pt" height="212pt"
 viewBox="0.00 0.00 850.00 212.00" xmlns="http://www.w3.org/2000/svg" xmlns:xlink="http://www.w3.org/1999/xlink">
<g id="graph0" class="graph" transform="scale(1 1) rotate(0) translate(12.96 199.21)">
<title>G</title>
<!-- interaction -->
<g id="node1" class="node">
<title>interaction</title>
<path fill="#fff4e6" stroke="#34495e" d="M446.62,-186.25C446.62,-186.25 375.88,-186.25 375.88,-186.25 369.88,-186.25 363.88,-180.25 363.88,-174.25 363.88,-174.25 363.88,-162.25 363.88,-162.25 363.88,-156.25 369.88,-150.25 375.88,-150.25 375.88,-150.25 446.62,-150.25 446.62,-150.25 452.62,-150.25 458.62,-156.25 458.62,-162.25 458.62,-162.25 458.62,-174.25 458.62,-174.25 458.62,-180.25 452.62,-186.25 446.62,-186.25"/>
<text xml:space="preserve" text-anchor="middle" x="411.25" y="-162.45" font-family="Noto Sans CJK SC" font-size="14.00">CLI / UI / API</text>
</g>
<!-- kernel -->
<g id="node2" class="node">
<title>kernel</title>
<path fill="#fdecea" stroke="#34495e" d="M511.88,-117.25C511.88,-117.25 310.62,-117.25 310.62,-117.25 304.62,-117.25 298.62,-111.25 298.62,-105.25 298.62,-105.25 298.62,-91.25 298.62,-91.25 298.62,-85.25 304.62,-79.25 310.62,-79.25 310.62,-79.25 511.88,-79.25 511.88,-79.25 517.88,-79.25 523.88,-85.25 523.88,-91.25 523.88,-91.25 523.88,-105.25 523.88,-105.25 523.88,-111.25 517.88,-117.25 511.88,-117.25"/>
<text xml:space="preserve" text-anchor="middle" x="411.25" y="-99.95" font-family="Noto Sans CJK SC" font-size="14.00">Harness Kernel</text>
<text xml:space="preserve" text-anchor="middle" x="411.25" y="-84.95" font-family="Noto Sans CJK SC" font-size="14.00">Lifecycle · Policy · State · Evidence</text>
</g>
<!-- interaction&#45;&gt;kernel -->
<g id="edge1" class="edge">
<title>interaction&#45;&gt;kernel</title>
<path fill="none" stroke="#5d6d7e" d="M411.25,-150.09C411.25,-143.66 411.25,-136.16 411.25,-128.92"/>
<polygon fill="#5d6d7e" stroke="#5d6d7e" points="414.75,-129.11 411.25,-119.11 407.75,-129.11 414.75,-129.11"/>
</g>
<!-- model -->
<g id="node3" class="node">
<title>model</title>
<path fill="#edf5ff" stroke="#34495e" d="M92.5,-36C92.5,-36 12,-36 12,-36 6,-36 0,-30 0,-24 0,-24 0,-12 0,-12 0,-6 6,0 12,0 12,0 92.5,0 92.5,0 98.5,0 104.5,-6 104.5,-12 104.5,-12 104.5,-24 104.5,-24 104.5,-30 98.5,-36 92.5,-36"/>
<text xml:space="preserve" text-anchor="middle" x="52.25" y="-12.2" font-family="Noto Sans CJK SC" font-size="14.00">Model Adapter</text>
</g>
<!-- kernel&#45;&gt;model -->
<g id="edge2" class="edge">
<title>kernel&#45;&gt;model</title>
<path fill="none" stroke="#5d6d7e" d="M315.63,-78.78C257.75,-67.26 182.55,-51.68 116.25,-36 116.13,-35.97 116.02,-35.95 115.9,-35.92"/>
<polygon fill="#5d6d7e" stroke="#5d6d7e" points="116.94,-32.57 106.4,-33.6 115.28,-39.37 116.94,-32.57"/>
<text xml:space="preserve" text-anchor="middle" x="245.69" y="-53.75" font-family="Noto Sans CJK SC" font-size="10.00">port</text>
</g>
<!-- context -->
<g id="node4" class="node">
<title>context</title>
<path fill="#edf5ff" stroke="#34495e" d="M290.75,-36C290.75,-36 139.75,-36 139.75,-36 133.75,-36 127.75,-30 127.75,-24 127.75,-24 127.75,-12 127.75,-12 127.75,-6 133.75,0 139.75,0 139.75,0 290.75,0 290.75,0 296.75,0 302.75,-6 302.75,-12 302.75,-12 302.75,-24 302.75,-24 302.75,-30 296.75,-36 290.75,-36"/>
<text xml:space="preserve" text-anchor="middle" x="215.25" y="-12.2" font-family="Noto Sans CJK SC" font-size="14.00">Context / Memory Adapter</text>
</g>
<!-- kernel&#45;&gt;context -->
<g id="edge3" class="edge">
<title>kernel&#45;&gt;context</title>
<path fill="none" stroke="#5d6d7e" d="M365.3,-78.9C336.55,-67.43 299.39,-52.59 269.24,-40.56"/>
<polygon fill="#5d6d7e" stroke="#5d6d7e" points="270.89,-37.44 260.3,-36.99 268.29,-43.94 270.89,-37.44"/>
<text xml:space="preserve" text-anchor="middle" x="333.23" y="-53.75" font-family="Noto Sans CJK SC" font-size="10.00">port</text>
</g>
<!-- tools -->
<g id="node5" class="node">
<title>tools</title>
<path fill="#eef9f1" stroke="#34495e" d="M484.5,-36C484.5,-36 338,-36 338,-36 332,-36 326,-30 326,-24 326,-24 326,-12 326,-12 326,-6 332,0 338,0 338,0 484.5,0 484.5,0 490.5,0 496.5,-6 496.5,-12 496.5,-12 496.5,-24 496.5,-24 496.5,-30 490.5,-36 484.5,-36"/>
<text xml:space="preserve" text-anchor="middle" x="411.25" y="-12.2" font-family="Noto Sans CJK SC" font-size="14.00">Tool / Workspace Adapter</text>
</g>
<!-- kernel&#45;&gt;tools -->
<g id="edge4" class="edge">
<title>kernel&#45;&gt;tools</title>
<path fill="none" stroke="#5d6d7e" d="M411.25,-79.1C411.25,-69.72 411.25,-58.05 411.25,-47.5"/>
<polygon fill="#5d6d7e" stroke="#5d6d7e" points="414.75,-47.76 411.25,-37.76 407.75,-47.76 414.75,-47.76"/>
<text xml:space="preserve" text-anchor="middle" x="441.62" y="-53.75" font-family="Noto Sans CJK SC" font-size="10.00">capability port</text>
</g>
<!-- durable -->
<g id="node6" class="node">
<title>durable</title>
<path fill="#f6efff" stroke="#34495e" d="M646.75,-36C646.75,-36 531.75,-36 531.75,-36 525.75,-36 519.75,-30 519.75,-24 519.75,-24 519.75,-12 519.75,-12 519.75,-6 525.75,0 531.75,0 531.75,0 646.75,0 646.75,0 652.75,0 658.75,-6 658.75,-12 658.75,-12 658.75,-24 658.75,-24 658.75,-30 652.75,-36 646.75,-36"/>
<text xml:space="preserve" text-anchor="middle" x="589.25" y="-12.2" font-family="Noto Sans CJK SC" font-size="14.00">Checkpoint / Journal</text>
</g>
<!-- kernel&#45;&gt;durable -->
<g id="edge5" class="edge">
<title>kernel&#45;&gt;durable</title>
<path fill="none" stroke="#5d6d7e" d="M452.98,-78.9C478.75,-67.58 511.95,-52.98 539.14,-41.03"/>
<polygon fill="#5d6d7e" stroke="#5d6d7e" points="540.48,-44.26 548.23,-37.03 537.66,-37.85 540.48,-44.26"/>
<text xml:space="preserve" text-anchor="middle" x="543.16" y="-53.75" font-family="Noto Sans CJK SC" font-size="10.00">state transition</text>
</g>
<!-- verify -->
<g id="node7" class="node">
<title>verify</title>
<path fill="#f6efff" stroke="#34495e" d="M812.25,-36C812.25,-36 694.25,-36 694.25,-36 688.25,-36 682.25,-30 682.25,-24 682.25,-24 682.25,-12 682.25,-12 682.25,-6 688.25,0 694.25,0 694.25,0 812.25,0 812.25,0 818.25,0 824.25,-6 824.25,-12 824.25,-12 824.25,-24 824.25,-24 824.25,-30 818.25,-36 812.25,-36"/>
<text xml:space="preserve" text-anchor="middle" x="753.25" y="-12.2" font-family="Noto Sans CJK SC" font-size="14.00">Trace / Eval / Verifier</text>
</g>
<!-- kernel&#45;&gt;verify -->
<g id="edge6" class="edge">
<title>kernel&#45;&gt;verify</title>
<path fill="none" stroke="#5d6d7e" d="M507.51,-78.78C531.34,-73.96 556.76,-68.61 580.25,-63.25 612.28,-55.94 647.44,-47.09 677.65,-39.24"/>
<polygon fill="#5d6d7e" stroke="#5d6d7e" points="678.29,-42.69 687.08,-36.78 676.52,-35.92 678.29,-42.69"/>
<text xml:space="preserve" text-anchor="middle" x="653.52" y="-53.75" font-family="Noto Sans CJK SC" font-size="10.00">artifact / trace</text>
</g>
</g>
</svg>
