<?xml version="1.0" encoding="UTF-8" standalone="no"?>
<!DOCTYPE svg PUBLIC "-//W3C//DTD SVG 1.1//EN"
 "http://www.w3.org/Graphics/SVG/1.1/DTD/svg11.dtd">
<!-- Generated by graphviz version 14.0.1 (20251006.0113)
 -->
<!-- DOT-SHA256: 61a4b4b6269f9a4660f1de0714f1fb1a19056c586d52451e2233f609fc39cc40 -->
<!-- Title: G Pages: 1 -->
<svg width="403pt" height="486pt"
 viewBox="0.00 0.00 403.00 486.00" xmlns="http://www.w3.org/2000/svg" xmlns:xlink="http://www.w3.org/1999/xlink">
<g id="graph0" class="graph" transform="scale(1 1) rotate(0) translate(10.8 475.3)">
<title>G</title>
<!-- s0 -->
<g id="node1" class="node">
<title>s0</title>
<path fill="#f8fbfd" stroke="#34495e" d="M276.5,-464.5C276.5,-464.5 163,-464.5 163,-464.5 157,-464.5 151,-458.5 151,-452.5 151,-452.5 151,-440.5 151,-440.5 151,-434.5 157,-428.5 163,-428.5 163,-428.5 276.5,-428.5 276.5,-428.5 282.5,-428.5 288.5,-434.5 288.5,-440.5 288.5,-440.5 288.5,-452.5 288.5,-452.5 288.5,-458.5 282.5,-464.5 276.5,-464.5"/>
<text xml:space="preserve" text-anchor="middle" x="219.75" y="-442.93" font-family="Noto Sans CJK SC" font-size="16.00">Step 1 &#160;接收输入</text>
</g>
<!-- s1 -->
<g id="node2" class="node">
<title>s1</title>
<path fill="#f8fbfd" stroke="#34495e" d="M222.5,-397.5C222.5,-397.5 109,-397.5 109,-397.5 103,-397.5 97,-391.5 97,-385.5 97,-385.5 97,-373.5 97,-373.5 97,-367.5 103,-361.5 109,-361.5 109,-361.5 222.5,-361.5 222.5,-361.5 228.5,-361.5 234.5,-367.5 234.5,-373.5 234.5,-373.5 234.5,-385.5 234.5,-385.5 234.5,-391.5 228.5,-397.5 222.5,-397.5"/>
<text xml:space="preserve" text-anchor="middle" x="165.75" y="-375.93" font-family="Noto Sans CJK SC" font-size="16.00">Step 2 &#160;注册服务</text>
</g>
<!-- s0&#45;&gt;s1 -->
<g id="edge1" class="edge">
<title>s0&#45;&gt;s1</title>
<path fill="none" stroke="#5d6d7e" d="M205.28,-428.08C199.83,-421.52 193.51,-413.91 187.54,-406.73"/>
<polygon fill="#5d6d7e" stroke="#5d6d7e" points="190.31,-404.59 181.23,-399.13 184.93,-409.06 190.31,-404.59"/>
</g>
<!-- s2 -->
<g id="node3" class="node">
<title>s2</title>
<path fill="#f8fbfd" stroke="#34495e" d="M220,-330.5C220,-330.5 73.5,-330.5 73.5,-330.5 67.5,-330.5 61.5,-324.5 61.5,-318.5 61.5,-318.5 61.5,-306.5 61.5,-306.5 61.5,-300.5 67.5,-294.5 73.5,-294.5 73.5,-294.5 220,-294.5 220,-294.5 226,-294.5 232,-300.5 232,-306.5 232,-306.5 232,-318.5 232,-318.5 232,-324.5 226,-330.5 220,-330.5"/>
<text xml:space="preserve" text-anchor="middle" x="146.75" y="-308.93" font-family="Noto Sans CJK SC" font-size="16.00">Step 3 &#160;解析插件依赖</text>
</g>
<!-- s1&#45;&gt;s2 -->
<g id="edge2" class="edge">
<title>s1&#45;&gt;s2</title>
<path fill="none" stroke="#5d6d7e" d="M160.66,-361.08C158.91,-355.11 156.91,-348.26 154.98,-341.65"/>
<polygon fill="#5d6d7e" stroke="#5d6d7e" points="158.45,-341.04 152.28,-332.42 151.73,-343 158.45,-341.04"/>
</g>
<!-- s3 -->
<g id="node4" class="node">
<title>s3</title>
<path fill="#f8fbfd" stroke="#34495e" d="M217.75,-263.5C217.75,-263.5 33.75,-263.5 33.75,-263.5 27.75,-263.5 21.75,-257.5 21.75,-251.5 21.75,-251.5 21.75,-239.5 21.75,-239.5 21.75,-233.5 27.75,-227.5 33.75,-227.5 33.75,-227.5 217.75,-227.5 217.75,-227.5 223.75,-227.5 229.75,-233.5 229.75,-239.5 229.75,-239.5 229.75,-251.5 229.75,-251.5 229.75,-257.5 223.75,-263.5 217.75,-263.5"/>
<text xml:space="preserve" text-anchor="middle" x="125.75" y="-241.93" font-family="Noto Sans CJK SC" font-size="16.00">Step 4 &#160;激活/销毁生命周期</text>
</g>
<!-- s2&#45;&gt;s3 -->
<g id="edge3" class="edge">
<title>s2&#45;&gt;s3</title>
<path fill="none" stroke="#5d6d7e" d="M141.12,-294.08C139.19,-288.11 136.98,-281.26 134.85,-274.65"/>
<polygon fill="#5d6d7e" stroke="#5d6d7e" points="138.26,-273.85 131.86,-265.41 131.6,-276 138.26,-273.85"/>
</g>
<!-- s4 -->
<g id="node5" class="node">
<title>s4</title>
<path fill="#f8fbfd" stroke="#34495e" d="M223.75,-196.5C223.75,-196.5 27.75,-196.5 27.75,-196.5 21.75,-196.5 15.75,-190.5 15.75,-184.5 15.75,-184.5 15.75,-172.5 15.75,-172.5 15.75,-166.5 21.75,-160.5 27.75,-160.5 27.75,-160.5 223.75,-160.5 223.75,-160.5 229.75,-160.5 235.75,-166.5 235.75,-172.5 235.75,-172.5 235.75,-184.5 235.75,-184.5 235.75,-190.5 229.75,-196.5 223.75,-196.5"/>
<text xml:space="preserve" text-anchor="middle" x="125.75" y="-174.93" font-family="Noto Sans CJK SC" font-size="16.00">Step 5 &#160;观察会话与工具边界</text>
</g>
<!-- s3&#45;&gt;s4 -->
<g id="edge4" class="edge">
<title>s3&#45;&gt;s4</title>
<path fill="none" stroke="#5d6d7e" d="M125.75,-227.08C125.75,-221.25 125.75,-214.59 125.75,-208.14"/>
<polygon fill="#5d6d7e" stroke="#5d6d7e" points="129.25,-208.48 125.75,-198.48 122.25,-208.48 129.25,-208.48"/>
</g>
<!-- s5 -->
<g id="node6" class="node">
<title>s5</title>
<path fill="#f8fbfd" stroke="#34495e" d="M182.5,-129.5C182.5,-129.5 69,-129.5 69,-129.5 63,-129.5 57,-123.5 57,-117.5 57,-117.5 57,-105.5 57,-105.5 57,-99.5 63,-93.5 69,-93.5 69,-93.5 182.5,-93.5 182.5,-93.5 188.5,-93.5 194.5,-99.5 194.5,-105.5 194.5,-105.5 194.5,-117.5 194.5,-117.5 194.5,-123.5 188.5,-129.5 182.5,-129.5"/>
<text xml:space="preserve" text-anchor="middle" x="125.75" y="-107.92" font-family="Noto Sans CJK SC" font-size="16.00">Step 6 &#160;写入证据</text>
</g>
<!-- s4&#45;&gt;s5 -->
<g id="edge5" class="edge">
<title>s4&#45;&gt;s5</title>
<path fill="none" stroke="#5d6d7e" d="M125.75,-160.08C125.75,-154.25 125.75,-147.59 125.75,-141.14"/>
<polygon fill="#5d6d7e" stroke="#5d6d7e" points="129.25,-141.48 125.75,-131.48 122.25,-141.48 129.25,-141.48"/>
</g>
<!-- s6 -->
<g id="node7" class="node">
<title>s6</title>
<path fill="#f8fbfd" stroke="#34495e" d="M125.5,-49.25C125.5,-49.25 12,-49.25 12,-49.25 6,-49.25 0,-43.25 0,-37.25 0,-37.25 0,-25.25 0,-25.25 0,-19.25 6,-13.25 12,-13.25 12,-13.25 125.5,-13.25 125.5,-13.25 131.5,-13.25 137.5,-19.25 137.5,-25.25 137.5,-25.25 137.5,-37.25 137.5,-37.25 137.5,-43.25 131.5,-49.25 125.5,-49.25"/>
<text xml:space="preserve" text-anchor="middle" x="68.75" y="-27.68" font-family="Noto Sans CJK SC" font-size="16.00">Step 7 &#160;验证结果</text>
</g>
<!-- s5&#45;&gt;s6 -->
<g id="edge6" class="edge">
<title>s5&#45;&gt;s6</title>
<path fill="none" stroke="#5d6d7e" d="M113.1,-93.13C105.72,-83 96.26,-70.02 87.98,-58.64"/>
<polygon fill="#5d6d7e" stroke="#5d6d7e" points="90.97,-56.81 82.26,-50.79 85.31,-60.93 90.97,-56.81"/>
</g>
<!-- fail -->
<g id="node8" class="node">
<title>fail</title>
<path fill="#fdecea" stroke="#34495e" d="M258.19,-59.27C258.19,-59.27 169.31,-34.48 169.31,-34.48 163.53,-32.86 163.53,-29.64 169.31,-28.02 169.31,-28.02 258.19,-3.23 258.19,-3.23 263.97,-1.61 275.53,-1.61 281.31,-3.23 281.31,-3.23 370.19,-28.02 370.19,-28.02 375.97,-29.64 375.97,-32.86 370.19,-34.48 370.19,-34.48 281.31,-59.27 281.31,-59.27 275.53,-60.89 263.97,-60.89 258.19,-59.27"/>
<text xml:space="preserve" text-anchor="middle" x="269.75" y="-27.68" font-family="Noto Sans CJK SC" font-size="16.00">故障/不确定?</text>
</g>
<!-- s5&#45;&gt;fail -->
<g id="edge7" class="edge">
<title>s5&#45;&gt;fail</title>
<path fill="none" stroke="#5d6d7e" stroke-dasharray="5,2" d="M157.71,-93.13C176.81,-82.76 201.42,-69.38 222.71,-57.81"/>
<polygon fill="#5d6d7e" stroke="#5d6d7e" points="224.09,-61.05 231.2,-53.2 220.75,-54.89 224.09,-61.05"/>
</g>
<!-- fail&#45;&gt;s0 -->
<g id="edge8" class="edge">
<title>fail&#45;&gt;s0</title>
<path fill="none" stroke="#b03a2e" stroke-dasharray="5,2" d="M269.75,-62.72C269.75,-77.2 269.75,-94.74 269.75,-110.5 269.75,-380.5 269.75,-380.5 269.75,-380.5 269.75,-395.44 261.35,-409.06 251.43,-419.92"/>
<polygon fill="#b03a2e" stroke="#b03a2e" points="248.98,-417.42 244.36,-426.95 253.92,-422.38 248.98,-417.42"/>
<text xml:space="preserve" text-anchor="middle" x="307.62" y="-241.05" font-family="Noto Sans CJK SC" font-size="11.00">retry only if safe</text>
</g>
</g>
</svg>
