<?xml version="1.0" encoding="UTF-8" standalone="no"?>
<!DOCTYPE svg PUBLIC "-//W3C//DTD SVG 1.1//EN"
 "http://www.w3.org/Graphics/SVG/1.1/DTD/svg11.dtd">
<!-- Generated by graphviz version 14.0.1 (20251006.0113)
 -->
<!-- DOT-SHA256: 6f9d81ce1959a1d26c38547e107e403a41ce4eacfb8a2792460506b4533e1b46 -->
<!-- Title: G Pages: 1 -->
<svg width="465pt" height="630pt"
 viewBox="0.00 0.00 465.00 630.00" xmlns="http://www.w3.org/2000/svg" xmlns:xlink="http://www.w3.org/1999/xlink">
<g id="graph0" class="graph" transform="scale(1 1) rotate(0) translate(12.96 616.71)">
<title>G</title>
<!-- compile -->
<g id="node1" class="node">
<title>compile</title>
<path fill="#edf5ff" stroke="#34495e" d="M426.75,-603.75C426.75,-603.75 227.75,-603.75 227.75,-603.75 221.75,-603.75 215.75,-597.75 215.75,-591.75 215.75,-591.75 215.75,-570.25 215.75,-570.25 215.75,-564.25 221.75,-558.25 227.75,-558.25 227.75,-558.25 426.75,-558.25 426.75,-558.25 432.75,-558.25 438.75,-564.25 438.75,-570.25 438.75,-570.25 438.75,-591.75 438.75,-591.75 438.75,-597.75 432.75,-603.75 426.75,-603.75"/>
<text xml:space="preserve" text-anchor="middle" x="327.25" y="-587.4" font-family="Noto Sans CJK SC" font-size="13.00">编译 Graph</text>
<text xml:space="preserve" text-anchor="middle" x="327.25" y="-568.65" font-family="Noto Sans CJK SC" font-size="13.00">计算 Topology / Schema Signature</text>
</g>
<!-- load -->
<g id="node2" class="node">
<title>load</title>
<path fill="#f6efff" stroke="#34495e" d="M398.62,-527.25C398.62,-527.25 255.88,-527.25 255.88,-527.25 249.88,-527.25 243.88,-521.25 243.88,-515.25 243.88,-515.25 243.88,-503.25 243.88,-503.25 243.88,-497.25 249.88,-491.25 255.88,-491.25 255.88,-491.25 398.62,-491.25 398.62,-491.25 404.62,-491.25 410.62,-497.25 410.62,-503.25 410.62,-503.25 410.62,-515.25 410.62,-515.25 410.62,-521.25 404.62,-527.25 398.62,-527.25"/>
<text xml:space="preserve" text-anchor="middle" x="327.25" y="-506.27" font-family="Noto Sans CJK SC" font-size="13.00">加载 Run State + Version</text>
</g>
<!-- compile&#45;&gt;load -->
<g id="edge1" class="edge">
<title>compile&#45;&gt;load</title>
<path fill="none" stroke="#5d6d7e" d="M327.25,-557.93C327.25,-551.74 327.25,-544.93 327.25,-538.44"/>
<polygon fill="#5d6d7e" stroke="#5d6d7e" points="330.75,-538.83 327.25,-528.83 323.75,-538.83 330.75,-538.83"/>
</g>
<!-- match -->
<g id="node3" class="node">
<title>match</title>
<path fill="#fdecea" stroke="#34495e" d="M214.39,-458.41C214.39,-458.41 66.11,-435.34 66.11,-435.34 60.18,-434.42 60.18,-432.58 66.11,-431.66 66.11,-431.66 214.39,-408.59 214.39,-408.59 220.32,-407.67 232.18,-407.67 238.11,-408.59 238.11,-408.59 386.39,-431.66 386.39,-431.66 392.32,-432.58 392.32,-434.42 386.39,-435.34 386.39,-435.34 238.11,-458.41 238.11,-458.41 232.18,-459.33 220.32,-459.33 214.39,-458.41"/>
<text xml:space="preserve" text-anchor="middle" x="226.25" y="-430.52" font-family="Noto Sans CJK SC" font-size="13.00">Persisted Signature 匹配?</text>
</g>
<!-- load&#45;&gt;match -->
<g id="edge2" class="edge">
<title>load&#45;&gt;match</title>
<path fill="none" stroke="#5d6d7e" d="M303.31,-490.77C291.86,-482.41 277.86,-472.18 264.95,-462.76"/>
<polygon fill="#5d6d7e" stroke="#5d6d7e" points="267.15,-460.03 257.01,-456.96 263.02,-465.69 267.15,-460.03"/>
</g>
<!-- execute -->
<g id="node4" class="node">
<title>execute</title>
<path fill="#fff4e6" stroke="#34495e" d="M277.25,-363.25C277.25,-363.25 135.25,-363.25 135.25,-363.25 129.25,-363.25 123.25,-357.25 123.25,-351.25 123.25,-351.25 123.25,-335 123.25,-335 123.25,-329 129.25,-323 135.25,-323 135.25,-323 277.25,-323 277.25,-323 283.25,-323 289.25,-329 289.25,-335 289.25,-335 289.25,-351.25 289.25,-351.25 289.25,-357.25 283.25,-363.25 277.25,-363.25"/>
<text xml:space="preserve" text-anchor="middle" x="206.25" y="-346.9" font-family="Noto Sans CJK SC" font-size="13.00">执行 Node</text>
<text xml:space="preserve" text-anchor="middle" x="206.25" y="-328.15" font-family="Noto Sans CJK SC" font-size="13.00">State Delta / Effect Intent</text>
</g>
<!-- match&#45;&gt;execute -->
<g id="edge3" class="edge">
<title>match&#45;&gt;execute</title>
<path fill="none" stroke="#5d6d7e" d="M220.57,-407.41C218.27,-397.22 215.58,-385.35 213.16,-374.66"/>
<polygon fill="#5d6d7e" stroke="#5d6d7e" points="216.63,-374.11 211,-365.13 209.8,-375.66 216.63,-374.11"/>
<text xml:space="preserve" text-anchor="middle" x="221.35" y="-383.2" font-family="Noto Sans CJK SC" font-size="9.00">是</text>
</g>
<!-- reject -->
<g id="node9" class="node">
<title>reject</title>
<path fill="#fdecea" stroke="#34495e" d="M385.88,-182.5C385.88,-182.5 274.62,-182.5 274.62,-182.5 268.62,-182.5 262.62,-176.5 262.62,-170.5 262.62,-170.5 262.62,-158.5 262.62,-158.5 262.62,-152.5 268.62,-146.5 274.62,-146.5 274.62,-146.5 385.88,-146.5 385.88,-146.5 391.88,-146.5 397.88,-152.5 397.88,-158.5 397.88,-158.5 397.88,-170.5 397.88,-170.5 397.88,-176.5 391.88,-182.5 385.88,-182.5"/>
<text xml:space="preserve" text-anchor="middle" x="330.25" y="-161.53" font-family="Noto Sans CJK SC" font-size="13.00">拒绝恢复 / 冲突重读</text>
</g>
<!-- match&#45;&gt;reject -->
<g id="edge4" class="edge">
<title>match&#45;&gt;reject</title>
<path fill="none" stroke="#5d6d7e" d="M256.45,-411.07C271.58,-398.76 288.84,-382.04 299.25,-363.25 329.24,-309.12 332.51,-234.61 331.72,-194.27"/>
<polygon fill="#5d6d7e" stroke="#5d6d7e" points="335.22,-194.3 331.42,-184.41 328.23,-194.52 335.22,-194.3"/>
<text xml:space="preserve" text-anchor="middle" x="327.45" y="-299.45" font-family="Noto Sans CJK SC" font-size="9.00">否</text>
</g>
<!-- cas -->
<g id="node5" class="node">
<title>cas</title>
<path fill="#fdecea" stroke="#34495e" d="M141.43,-277.44C141.43,-277.44 11.82,-254.81 11.82,-254.81 5.91,-253.78 5.91,-251.72 11.82,-250.69 11.82,-250.69 141.43,-228.06 141.43,-228.06 147.34,-227.03 159.16,-227.03 165.07,-228.06 165.07,-228.06 294.68,-250.69 294.68,-250.69 300.59,-251.72 300.59,-253.78 294.68,-254.81 294.68,-254.81 165.07,-277.44 165.07,-277.44 159.16,-278.47 147.34,-278.47 141.43,-277.44"/>
<text xml:space="preserve" text-anchor="middle" x="153.25" y="-249.78" font-family="Noto Sans CJK SC" font-size="13.00">Checkpoint CAS 成功?</text>
</g>
<!-- execute&#45;&gt;cas -->
<g id="edge5" class="edge">
<title>execute&#45;&gt;cas</title>
<path fill="none" stroke="#5d6d7e" d="M194.49,-322.51C188.25,-312.1 180.4,-299.03 173.24,-287.08"/>
<polygon fill="#5d6d7e" stroke="#5d6d7e" points="176.35,-285.47 168.21,-278.69 170.35,-289.07 176.35,-285.47"/>
</g>
<!-- effect -->
<g id="node6" class="node">
<title>effect</title>
<path fill="#eef9f1" stroke="#34495e" d="M230.62,-182.5C230.62,-182.5 75.88,-182.5 75.88,-182.5 69.87,-182.5 63.88,-176.5 63.88,-170.5 63.88,-170.5 63.88,-158.5 63.88,-158.5 63.88,-152.5 69.88,-146.5 75.88,-146.5 75.88,-146.5 230.62,-146.5 230.62,-146.5 236.62,-146.5 242.62,-152.5 242.62,-158.5 242.62,-158.5 242.62,-170.5 242.62,-170.5 242.62,-176.5 236.62,-182.5 230.62,-182.5"/>
<text xml:space="preserve" text-anchor="middle" x="153.25" y="-161.53" font-family="Noto Sans CJK SC" font-size="13.00">Effect Key 执行 / Reconcile</text>
</g>
<!-- cas&#45;&gt;effect -->
<g id="edge6" class="edge">
<title>cas&#45;&gt;effect</title>
<path fill="none" stroke="#5d6d7e" d="M153.25,-225.87C153.25,-215.89 153.25,-204.42 153.25,-194.19"/>
<polygon fill="#5d6d7e" stroke="#5d6d7e" points="156.75,-194.41 153.25,-184.41 149.75,-194.41 156.75,-194.41"/>
<text xml:space="preserve" text-anchor="middle" x="157.75" y="-202.45" font-family="Noto Sans CJK SC" font-size="9.00">是</text>
</g>
<!-- cas&#45;&gt;reject -->
<g id="edge7" class="edge">
<title>cas&#45;&gt;reject</title>
<path fill="none" stroke="#5d6d7e" d="M192.53,-232.61C219.65,-219.39 255.82,-201.77 284.28,-187.9"/>
<polygon fill="#5d6d7e" stroke="#5d6d7e" points="285.57,-191.16 293.03,-183.64 282.5,-184.87 285.57,-191.16"/>
<text xml:space="preserve" text-anchor="middle" x="267.31" y="-202.45" font-family="Noto Sans CJK SC" font-size="9.00">否</text>
</g>
<!-- terminal -->
<g id="node7" class="node">
<title>terminal</title>
<path fill="#fdecea" stroke="#34495e" d="M279.39,-113.68C279.39,-113.68 185.86,-99.32 185.86,-99.32 179.93,-98.41 179.93,-96.59 185.86,-95.68 185.86,-95.68 279.39,-81.32 279.39,-81.32 285.32,-80.41 297.18,-80.41 303.11,-81.32 303.11,-81.32 396.64,-95.68 396.64,-95.68 402.57,-96.59 402.57,-98.41 396.64,-99.32 396.64,-99.32 303.11,-113.68 303.11,-113.68 297.18,-114.59 285.32,-114.59 279.39,-113.68"/>
<text xml:space="preserve" text-anchor="middle" x="291.25" y="-91.9" font-family="Noto Sans CJK SC" font-size="13.00">Terminal + Verified?</text>
</g>
<!-- effect&#45;&gt;terminal -->
<g id="edge8" class="edge">
<title>effect&#45;&gt;terminal</title>
<path fill="none" stroke="#5d6d7e" d="M190.23,-146.08C209.63,-136.94 233.37,-125.76 252.96,-116.53"/>
<polygon fill="#5d6d7e" stroke="#5d6d7e" points="254.44,-119.71 262,-112.28 251.46,-113.37 254.44,-119.71"/>
</g>
<!-- terminal&#45;&gt;load -->
<g id="edge10" class="edge">
<title>terminal&#45;&gt;load</title>
<path fill="none" stroke="#5d6d7e" stroke-dasharray="5,2" d="M359.44,-105.4C394.21,-113.1 429.25,-129.34 429.25,-163.5 429.25,-434.5 429.25,-434.5 429.25,-434.5 429.25,-457.5 412,-474.06 391.69,-485.58"/>
<polygon fill="#5d6d7e" stroke="#5d6d7e" points="390.15,-482.44 382.88,-490.14 393.37,-488.65 390.15,-482.44"/>
<text xml:space="preserve" text-anchor="middle" x="433.75" y="-299.45" font-family="Noto Sans CJK SC" font-size="9.00">否</text>
</g>
<!-- finish -->
<g id="node8" class="node">
<title>finish</title>
<path fill="#eef9f1" stroke="#34495e" d="M354,-36C354,-36 228.5,-36 228.5,-36 222.5,-36 216.5,-30 216.5,-24 216.5,-24 216.5,-12 216.5,-12 216.5,-6 222.5,0 228.5,0 228.5,0 354,0 354,0 360,0 366,-6 366,-12 366,-12 366,-24 366,-24 366,-30 360,-36 354,-36"/>
<text xml:space="preserve" text-anchor="middle" x="291.25" y="-12.4" font-family="Noto Sans CJK SC" font-size="13.00">FINISHED + Evidence</text>
</g>
<!-- terminal&#45;&gt;finish -->
<g id="edge9" class="edge">
<title>terminal&#45;&gt;finish</title>
<path fill="none" stroke="#5d6d7e" d="M291.25,-79.3C291.25,-70.03 291.25,-58.36 291.25,-47.75"/>
<polygon fill="#5d6d7e" stroke="#5d6d7e" points="294.75,-47.93 291.25,-37.93 287.75,-47.93 294.75,-47.93"/>
<text xml:space="preserve" text-anchor="middle" x="295.75" y="-55.95" font-family="Noto Sans CJK SC" font-size="9.00">是</text>
</g>
</g>
</svg>
