<?xml version="1.0" encoding="UTF-8" standalone="no"?>
<!DOCTYPE svg PUBLIC "-//W3C//DTD SVG 1.1//EN"
 "http://www.w3.org/Graphics/SVG/1.1/DTD/svg11.dtd">
<!-- Generated by graphviz version 14.0.1 (20251006.0113)
 -->
<!-- DOT-SHA256: 8e1a0f9be055536ce1058c8fe0b43bd7dccb8be62709770a7769589a8470508b -->
<!-- Title: G Pages: 1 -->
<svg width="403pt" height="486pt"
 viewBox="0.00 0.00 403.00 486.00" xmlns="http://www.w3.org/2000/svg" xmlns:xlink="http://www.w3.org/1999/xlink">
<g id="graph0" class="graph" transform="scale(1 1) rotate(0) translate(10.8 475.3)">
<title>G</title>
<!-- s0 -->
<g id="node1" class="node">
<title>s0</title>
<path fill="#f8fbfd" stroke="#34495e" d="M252.5,-464.5C252.5,-464.5 139,-464.5 139,-464.5 133,-464.5 127,-458.5 127,-452.5 127,-452.5 127,-440.5 127,-440.5 127,-434.5 133,-428.5 139,-428.5 139,-428.5 252.5,-428.5 252.5,-428.5 258.5,-428.5 264.5,-434.5 264.5,-440.5 264.5,-440.5 264.5,-452.5 264.5,-452.5 264.5,-458.5 258.5,-464.5 252.5,-464.5"/>
<text xml:space="preserve" text-anchor="middle" x="195.75" y="-442.93" font-family="Noto Sans CJK SC" font-size="16.00">Step 1 &#160;接收输入</text>
</g>
<!-- s1 -->
<g id="node2" class="node">
<title>s1</title>
<path fill="#f8fbfd" stroke="#34495e" d="M226.75,-397.5C226.75,-397.5 18.75,-397.5 18.75,-397.5 12.75,-397.5 6.75,-391.5 6.75,-385.5 6.75,-385.5 6.75,-373.5 6.75,-373.5 6.75,-367.5 12.75,-361.5 18.75,-361.5 18.75,-361.5 226.75,-361.5 226.75,-361.5 232.75,-361.5 238.75,-367.5 238.75,-373.5 238.75,-373.5 238.75,-385.5 238.75,-385.5 238.75,-391.5 232.75,-397.5 226.75,-397.5"/>
<text xml:space="preserve" text-anchor="middle" x="122.75" y="-375.93" font-family="Noto Sans CJK SC" font-size="16.00">Step 2 &#160;golden dataset 版本化</text>
</g>
<!-- s0&#45;&gt;s1 -->
<g id="edge1" class="edge">
<title>s0&#45;&gt;s1</title>
<path fill="none" stroke="#5d6d7e" d="M176.19,-428.08C168.41,-421.16 159.32,-413.07 150.87,-405.54"/>
<polygon fill="#5d6d7e" stroke="#5d6d7e" points="153.29,-403.01 143.5,-398.97 148.64,-408.24 153.29,-403.01"/>
</g>
<!-- s2 -->
<g id="node3" class="node">
<title>s2</title>
<path fill="#f8fbfd" stroke="#34495e" d="M202.38,-330.5C202.38,-330.5 43.12,-330.5 43.12,-330.5 37.12,-330.5 31.12,-324.5 31.12,-318.5 31.12,-318.5 31.12,-306.5 31.12,-306.5 31.12,-300.5 37.12,-294.5 43.12,-294.5 43.12,-294.5 202.38,-294.5 202.38,-294.5 208.38,-294.5 214.38,-300.5 214.38,-306.5 214.38,-306.5 214.38,-318.5 214.38,-318.5 214.38,-324.5 208.38,-330.5 202.38,-330.5"/>
<text xml:space="preserve" text-anchor="middle" x="122.75" y="-308.93" font-family="Noto Sans CJK SC" font-size="16.00">Step 3 &#160;每轮 trace 留存</text>
</g>
<!-- s1&#45;&gt;s2 -->
<g id="edge2" class="edge">
<title>s1&#45;&gt;s2</title>
<path fill="none" stroke="#5d6d7e" d="M122.75,-361.08C122.75,-355.25 122.75,-348.59 122.75,-342.14"/>
<polygon fill="#5d6d7e" stroke="#5d6d7e" points="126.25,-342.48 122.75,-332.48 119.25,-342.48 126.25,-342.48"/>
</g>
<!-- s3 -->
<g id="node4" class="node">
<title>s3</title>
<path fill="#f8fbfd" stroke="#34495e" d="M206.12,-263.5C206.12,-263.5 39.38,-263.5 39.38,-263.5 33.38,-263.5 27.38,-257.5 27.38,-251.5 27.38,-251.5 27.38,-239.5 27.38,-239.5 27.38,-233.5 33.38,-227.5 39.38,-227.5 39.38,-227.5 206.12,-227.5 206.12,-227.5 212.12,-227.5 218.12,-233.5 218.12,-239.5 218.12,-239.5 218.12,-251.5 218.12,-251.5 218.12,-257.5 212.12,-263.5 206.12,-263.5"/>
<text xml:space="preserve" text-anchor="middle" x="122.75" y="-241.93" font-family="Noto Sans CJK SC" font-size="16.00">Step 4 &#160;verifier 独立执行</text>
</g>
<!-- s2&#45;&gt;s3 -->
<g id="edge3" class="edge">
<title>s2&#45;&gt;s3</title>
<path fill="none" stroke="#5d6d7e" d="M122.75,-294.08C122.75,-288.25 122.75,-281.59 122.75,-275.14"/>
<polygon fill="#5d6d7e" stroke="#5d6d7e" points="126.25,-275.48 122.75,-265.48 119.25,-275.48 126.25,-275.48"/>
</g>
<!-- s4 -->
<g id="node5" class="node">
<title>s4</title>
<path fill="#f8fbfd" stroke="#34495e" d="M225.25,-196.5C225.25,-196.5 20.25,-196.5 20.25,-196.5 14.25,-196.5 8.25,-190.5 8.25,-184.5 8.25,-184.5 8.25,-172.5 8.25,-172.5 8.25,-166.5 14.25,-160.5 20.25,-160.5 20.25,-160.5 225.25,-160.5 225.25,-160.5 231.25,-160.5 237.25,-166.5 237.25,-172.5 237.25,-172.5 237.25,-184.5 237.25,-184.5 237.25,-190.5 231.25,-196.5 225.25,-196.5"/>
<text xml:space="preserve" text-anchor="middle" x="122.75" y="-174.93" font-family="Noto Sans CJK SC" font-size="16.00">Step 5 &#160;比较成功率/成本/步数</text>
</g>
<!-- s3&#45;&gt;s4 -->
<g id="edge4" class="edge">
<title>s3&#45;&gt;s4</title>
<path fill="none" stroke="#5d6d7e" d="M122.75,-227.08C122.75,-221.25 122.75,-214.59 122.75,-208.14"/>
<polygon fill="#5d6d7e" stroke="#5d6d7e" points="126.25,-208.48 122.75,-198.48 119.25,-208.48 126.25,-208.48"/>
</g>
<!-- s5 -->
<g id="node6" class="node">
<title>s5</title>
<path fill="#f8fbfd" stroke="#34495e" d="M179.5,-129.5C179.5,-129.5 66,-129.5 66,-129.5 60,-129.5 54,-123.5 54,-117.5 54,-117.5 54,-105.5 54,-105.5 54,-99.5 60,-93.5 66,-93.5 66,-93.5 179.5,-93.5 179.5,-93.5 185.5,-93.5 191.5,-99.5 191.5,-105.5 191.5,-105.5 191.5,-117.5 191.5,-117.5 191.5,-123.5 185.5,-129.5 179.5,-129.5"/>
<text xml:space="preserve" text-anchor="middle" x="122.75" y="-107.92" font-family="Noto Sans CJK SC" font-size="16.00">Step 6 &#160;写入证据</text>
</g>
<!-- s4&#45;&gt;s5 -->
<g id="edge5" class="edge">
<title>s4&#45;&gt;s5</title>
<path fill="none" stroke="#5d6d7e" d="M122.75,-160.08C122.75,-154.25 122.75,-147.59 122.75,-141.14"/>
<polygon fill="#5d6d7e" stroke="#5d6d7e" points="126.25,-141.48 122.75,-131.48 119.25,-141.48 126.25,-141.48"/>
</g>
<!-- s6 -->
<g id="node7" class="node">
<title>s6</title>
<path fill="#f8fbfd" stroke="#34495e" d="M125.5,-49.25C125.5,-49.25 12,-49.25 12,-49.25 6,-49.25 0,-43.25 0,-37.25 0,-37.25 0,-25.25 0,-25.25 0,-19.25 6,-13.25 12,-13.25 12,-13.25 125.5,-13.25 125.5,-13.25 131.5,-13.25 137.5,-19.25 137.5,-25.25 137.5,-25.25 137.5,-37.25 137.5,-37.25 137.5,-43.25 131.5,-49.25 125.5,-49.25"/>
<text xml:space="preserve" text-anchor="middle" x="68.75" y="-27.68" font-family="Noto Sans CJK SC" font-size="16.00">Step 7 &#160;验证结果</text>
</g>
<!-- s5&#45;&gt;s6 -->
<g id="edge6" class="edge">
<title>s5&#45;&gt;s6</title>
<path fill="none" stroke="#5d6d7e" d="M110.77,-93.13C103.84,-83.1 94.99,-70.28 87.2,-58.99"/>
<polygon fill="#5d6d7e" stroke="#5d6d7e" points="90.12,-57.06 81.56,-50.81 84.36,-61.03 90.12,-57.06"/>
</g>
<!-- fail -->
<g id="node8" class="node">
<title>fail</title>
<path fill="#fdecea" stroke="#34495e" d="M258.19,-59.27C258.19,-59.27 169.31,-34.48 169.31,-34.48 163.53,-32.86 163.53,-29.64 169.31,-28.02 169.31,-28.02 258.19,-3.23 258.19,-3.23 263.97,-1.61 275.53,-1.61 281.31,-3.23 281.31,-3.23 370.19,-28.02 370.19,-28.02 375.97,-29.64 375.97,-32.86 370.19,-34.48 370.19,-34.48 281.31,-59.27 281.31,-59.27 275.53,-60.89 263.97,-60.89 258.19,-59.27"/>
<text xml:space="preserve" text-anchor="middle" x="269.75" y="-27.68" font-family="Noto Sans CJK SC" font-size="16.00">故障/不确定?</text>
</g>
<!-- s5&#45;&gt;fail -->
<g id="edge7" class="edge">
<title>s5&#45;&gt;fail</title>
<path fill="none" stroke="#5d6d7e" stroke-dasharray="5,2" d="M155.37,-93.13C174.94,-82.72 200.18,-69.28 221.97,-57.68"/>
<polygon fill="#5d6d7e" stroke="#5d6d7e" points="223.51,-60.83 230.69,-53.04 220.22,-54.65 223.51,-60.83"/>
</g>
<!-- fail&#45;&gt;s0 -->
<g id="edge8" class="edge">
<title>fail&#45;&gt;s0</title>
<path fill="none" stroke="#b03a2e" stroke-dasharray="5,2" d="M269.75,-62.72C269.75,-77.2 269.75,-94.74 269.75,-110.5 269.75,-380.5 269.75,-380.5 269.75,-380.5 269.75,-397.75 258.25,-411.5 244.33,-421.83"/>
<polygon fill="#b03a2e" stroke="#b03a2e" points="242.54,-418.82 236.17,-427.29 246.43,-424.63 242.54,-418.82"/>
<text xml:space="preserve" text-anchor="middle" x="307.62" y="-241.05" font-family="Noto Sans CJK SC" font-size="11.00">retry only if safe</text>
</g>
</g>
</svg>
