<?xml version="1.0" encoding="UTF-8" standalone="no"?>
<!DOCTYPE svg PUBLIC "-//W3C//DTD SVG 1.1//EN"
 "http://www.w3.org/Graphics/SVG/1.1/DTD/svg11.dtd">
<!-- Generated by graphviz version 14.0.1 (20251006.0113)
 -->
<!-- DOT-SHA256: d34dd2cc2b0b16aaf58beecf7c41ad2bc472c651abdab8f07afe7f5cc39c02d0 -->
<!-- Title: G Pages: 1 -->
<svg width="1491pt" height="171pt"
 viewBox="0.00 0.00 1491.00 171.00" xmlns="http://www.w3.org/2000/svg" xmlns:xlink="http://www.w3.org/1999/xlink">
<g id="graph0" class="graph" transform="scale(1 1) rotate(0) translate(10.8 159.8)">
<title>G</title>
<!-- media -->
<g id="node1" class="node">
<title>media</title>
<path fill="#fff4e6" stroke="#34495e" stroke-width="1.2" d="M148.75,-128.5C148.75,-128.5 12,-128.5 12,-128.5 6,-128.5 0,-122.5 0,-116.5 0,-116.5 0,-101 0,-101 0,-95 6,-89 12,-89 12,-89 148.75,-89 148.75,-89 154.75,-89 160.75,-95 160.75,-101 160.75,-101 160.75,-116.5 160.75,-116.5 160.75,-122.5 154.75,-128.5 148.75,-128.5"/>
<text xml:space="preserve" text-anchor="middle" x="80.38" y="-110.25" font-family="Noto Sans CJK SC" font-size="15.00">Audio / video / sensor</text>
<text xml:space="preserve" text-anchor="middle" x="80.38" y="-94.5" font-family="Noto Sans CJK SC" font-size="15.00">media plane</text>
</g>
<!-- events -->
<g id="node2" class="node">
<title>events</title>
<path fill="#edf5ff" stroke="#34495e" stroke-width="1.2" d="M366.5,-128.5C366.5,-128.5 211.75,-128.5 211.75,-128.5 205.75,-128.5 199.75,-122.5 199.75,-116.5 199.75,-116.5 199.75,-101 199.75,-101 199.75,-95 205.75,-89 211.75,-89 211.75,-89 366.5,-89 366.5,-89 372.5,-89 378.5,-95 378.5,-101 378.5,-101 378.5,-116.5 378.5,-116.5 378.5,-122.5 372.5,-128.5 366.5,-128.5"/>
<text xml:space="preserve" text-anchor="middle" x="289.12" y="-110.25" font-family="Noto Sans CJK SC" font-size="15.00">Event plane</text>
<text xml:space="preserve" text-anchor="middle" x="289.12" y="-94.5" font-family="Noto Sans CJK SC" font-size="15.00">time / seq / trust / digest</text>
</g>
<!-- media&#45;&gt;events -->
<g id="edge1" class="edge">
<title>media&#45;&gt;events</title>
<path fill="none" stroke="#5d6d7e" d="M161.31,-108.75C170.1,-108.75 179.13,-108.75 188.12,-108.75"/>
<polygon fill="#5d6d7e" stroke="#5d6d7e" points="187.96,-112.25 197.96,-108.75 187.96,-105.25 187.96,-112.25"/>
</g>
<!-- fusion -->
<g id="node3" class="node">
<title>fusion</title>
<path fill="#f8fbfd" stroke="#34495e" stroke-width="1.2" d="M586.5,-85.5C586.5,-85.5 429.5,-85.5 429.5,-85.5 423.5,-85.5 417.5,-79.5 417.5,-73.5 417.5,-73.5 417.5,-58 417.5,-58 417.5,-52 423.5,-46 429.5,-46 429.5,-46 586.5,-46 586.5,-46 592.5,-46 598.5,-52 598.5,-58 598.5,-58 598.5,-73.5 598.5,-73.5 598.5,-79.5 592.5,-85.5 586.5,-85.5"/>
<text xml:space="preserve" text-anchor="middle" x="508" y="-67.25" font-family="Noto Sans CJK SC" font-size="15.00">Context fusion</text>
<text xml:space="preserve" text-anchor="middle" x="508" y="-51.5" font-family="Noto Sans CJK SC" font-size="15.00">partial / final / watermark</text>
</g>
<!-- events&#45;&gt;fusion -->
<g id="edge2" class="edge">
<title>events&#45;&gt;fusion</title>
<path fill="none" stroke="#5d6d7e" d="M378.96,-91.14C387.94,-89.36 397.11,-87.54 406.21,-85.73"/>
<polygon fill="#5d6d7e" stroke="#5d6d7e" points="406.63,-89.22 415.76,-83.84 405.27,-82.35 406.63,-89.22"/>
</g>
<!-- model -->
<g id="node4" class="node">
<title>model</title>
<path fill="#f8fbfd" stroke="#34495e" stroke-width="1.2" d="M777.62,-39.5C777.62,-39.5 676.88,-39.5 676.88,-39.5 670.88,-39.5 664.88,-33.5 664.88,-27.5 664.88,-27.5 664.88,-12 664.88,-12 664.88,-6 670.88,0 676.88,0 676.88,0 777.62,0 777.62,0 783.62,0 789.62,-6 789.62,-12 789.62,-12 789.62,-27.5 789.62,-27.5 789.62,-33.5 783.62,-39.5 777.62,-39.5"/>
<text xml:space="preserve" text-anchor="middle" x="727.25" y="-21.25" font-family="Noto Sans CJK SC" font-size="15.00">Model decision</text>
<text xml:space="preserve" text-anchor="middle" x="727.25" y="-5.5" font-family="Noto Sans CJK SC" font-size="15.00">structured intent</text>
</g>
<!-- fusion&#45;&gt;model -->
<g id="edge3" class="edge">
<title>fusion&#45;&gt;model</title>
<path fill="none" stroke="#5d6d7e" d="M598.93,-46.71C617.03,-42.88 635.84,-38.89 653.28,-35.2"/>
<polygon fill="#5d6d7e" stroke="#5d6d7e" points="653.97,-38.63 663.03,-33.14 652.52,-31.78 653.97,-38.63"/>
</g>
<!-- gate -->
<g id="node5" class="node">
<title>gate</title>
<path fill="#f6efff" stroke="#34495e" stroke-width="1.2" d="M1021.75,-41.5C1021.75,-41.5 906.75,-41.5 906.75,-41.5 900.75,-41.5 894.75,-35.5 894.75,-29.5 894.75,-29.5 894.75,-14 894.75,-14 894.75,-8 900.75,-2 906.75,-2 906.75,-2 1021.75,-2 1021.75,-2 1027.75,-2 1033.75,-8 1033.75,-14 1033.75,-14 1033.75,-29.5 1033.75,-29.5 1033.75,-35.5 1027.75,-41.5 1021.75,-41.5"/>
<text xml:space="preserve" text-anchor="middle" x="964.25" y="-23.25" font-family="Noto Sans CJK SC" font-size="15.00">Capability + epoch</text>
<text xml:space="preserve" text-anchor="middle" x="964.25" y="-7.5" font-family="Noto Sans CJK SC" font-size="15.00">deadline gate</text>
</g>
<!-- model&#45;&gt;gate -->
<g id="edge4" class="edge">
<title>model&#45;&gt;gate</title>
<path fill="none" stroke="#5d6d7e" d="M789.99,-20.28C818.45,-20.52 852.59,-20.81 883.01,-21.07"/>
<polygon fill="#5d6d7e" stroke="#5d6d7e" points="882.93,-24.57 892.96,-21.15 882.99,-17.57 882.93,-24.57"/>
</g>
<!-- effect -->
<g id="node6" class="node">
<title>effect</title>
<path fill="#f8fbfd" stroke="#34495e" stroke-width="1.2" d="M1238.75,-100.75C1238.75,-100.75 1084.75,-100.75 1084.75,-100.75 1078.75,-100.75 1072.75,-94.75 1072.75,-88.75 1072.75,-88.75 1072.75,-76.75 1072.75,-76.75 1072.75,-70.75 1078.75,-64.75 1084.75,-64.75 1084.75,-64.75 1238.75,-64.75 1238.75,-64.75 1244.75,-64.75 1250.75,-70.75 1250.75,-76.75 1250.75,-76.75 1250.75,-88.75 1250.75,-88.75 1250.75,-94.75 1244.75,-100.75 1238.75,-100.75"/>
<text xml:space="preserve" text-anchor="middle" x="1161.75" y="-76.38" font-family="Noto Sans CJK SC" font-size="15.00">Tool / browser / actuator</text>
</g>
<!-- gate&#45;&gt;effect -->
<g id="edge5" class="edge">
<title>gate&#45;&gt;effect</title>
<path fill="none" stroke="#5d6d7e" d="M1030.35,-42.06C1049.57,-48.06 1070.68,-54.65 1090.23,-60.75"/>
<polygon fill="#5d6d7e" stroke="#5d6d7e" points="1089.18,-64.08 1099.77,-63.72 1091.26,-57.4 1089.18,-64.08"/>
</g>
<!-- observe -->
<g id="node7" class="node">
<title>observe</title>
<path fill="#eaf7ee" stroke="#34495e" stroke-width="1.2" d="M1457.25,-129.5C1457.25,-129.5 1301.75,-129.5 1301.75,-129.5 1295.75,-129.5 1289.75,-123.5 1289.75,-117.5 1289.75,-117.5 1289.75,-102 1289.75,-102 1289.75,-96 1295.75,-90 1301.75,-90 1301.75,-90 1457.25,-90 1457.25,-90 1463.25,-90 1469.25,-96 1469.25,-102 1469.25,-102 1469.25,-117.5 1469.25,-117.5 1469.25,-123.5 1463.25,-129.5 1457.25,-129.5"/>
<text xml:space="preserve" text-anchor="middle" x="1379.5" y="-111.25" font-family="Noto Sans CJK SC" font-size="15.00">Receipt / sensor</text>
<text xml:space="preserve" text-anchor="middle" x="1379.5" y="-95.5" font-family="Noto Sans CJK SC" font-size="15.00">independent observation</text>
</g>
<!-- effect&#45;&gt;observe -->
<g id="edge6" class="edge">
<title>effect&#45;&gt;observe</title>
<path fill="none" stroke="#5d6d7e" d="M1251.13,-93.81C1259.96,-94.92 1268.98,-96.04 1277.93,-97.16"/>
<polygon fill="#5d6d7e" stroke="#5d6d7e" points="1277.35,-100.62 1287.71,-98.39 1278.22,-93.67 1277.35,-100.62"/>
</g>
<!-- observe&#45;&gt;events -->
<g id="edge9" class="edge">
<title>observe&#45;&gt;events</title>
<path fill="none" stroke="#5d6d7e" stroke-dasharray="5,2" d="M1289.35,-126.56C1250.6,-132.51 1204.58,-137.75 1162.75,-137.75 507,-137.75 507,-137.75 507,-137.75 468.62,-137.75 426.74,-133.23 390.12,-127.76"/>
<polygon fill="#5d6d7e" stroke="#5d6d7e" points="390.84,-124.33 380.43,-126.27 389.78,-131.25 390.84,-124.33"/>
<text xml:space="preserve" text-anchor="middle" x="855.88" y="-139.5" font-family="Noto Sans CJK SC" font-size="10.00">feedback</text>
</g>
<!-- safety -->
<g id="node8" class="node">
<title>safety</title>
<path fill="#fdecea" stroke="#34495e" stroke-width="1.2" d="M805,-100.75C805,-100.75 649.5,-100.75 649.5,-100.75 643.5,-100.75 637.5,-94.75 637.5,-88.75 637.5,-88.75 637.5,-76.75 637.5,-76.75 637.5,-70.75 643.5,-64.75 649.5,-64.75 649.5,-64.75 805,-64.75 805,-64.75 811,-64.75 817,-70.75 817,-76.75 817,-76.75 817,-88.75 817,-88.75 817,-94.75 811,-100.75 805,-100.75"/>
<text xml:space="preserve" text-anchor="middle" x="727.25" y="-76.38" font-family="Noto Sans CJK SC" font-size="15.00">E&#45;stop / safety controller</text>
</g>
<!-- safety&#45;&gt;gate -->
<g id="edge7" class="edge">
<title>safety&#45;&gt;gate</title>
<path fill="none" stroke="#b03a2e" d="M799.71,-64.2C826.18,-57.33 856.35,-49.5 883.51,-42.45"/>
<polygon fill="#b03a2e" stroke="#b03a2e" points="884.28,-45.87 893.08,-39.97 882.52,-39.09 884.28,-45.87"/>
<text xml:space="preserve" text-anchor="middle" x="855.88" y="-55.83" font-family="Noto Sans CJK SC" font-size="10.00">fence</text>
</g>
<!-- safety&#45;&gt;effect -->
<g id="edge8" class="edge">
<title>safety&#45;&gt;effect</title>
<path fill="none" stroke="#b03a2e" d="M817.34,-82.75C888.37,-82.75 987.8,-82.75 1061.39,-82.75"/>
<polygon fill="#b03a2e" stroke="#b03a2e" points="1061,-86.25 1071,-82.75 1061,-79.25 1061,-86.25"/>
<text xml:space="preserve" text-anchor="middle" x="964.25" y="-84.5" font-family="Noto Sans CJK SC" font-size="10.00">hard stop</text>
</g>
</g>
</svg>
